<svg width="64" height="64" viewBox="0 0 64 64" fill="none" xmlns="http://www.w3.org/2000/svg">
<rect width="64" height="64" rx="12" fill="#6012CE" fill-opacity="0.16"/>
<path fill-rule="evenodd" clip-rule="evenodd" d="M18.41 12H45.59C47.818 12 48.628 12.232 49.442 12.668C50.256 13.104 50.896 13.744 51.332 14.558C51.768 15.372 52 16.18 52 18.41V45.59C52 47.82 51.768 48.628 51.332 49.442C50.9049 50.2467 50.2466 50.905 49.442 51.332C48.628 51.768 47.82 52 45.59 52H18.41C16.18 52 15.372 51.768 14.558 51.332C13.7534 50.905 13.0951 50.2467 12.668 49.442C12.232 48.628 12 47.82 12 45.59V18.41C12 16.18 12.232 15.372 12.668 14.558C13.104 13.744 13.744 13.104 14.558 12.668C15.372 12.232 16.18 12 18.41 12Z" fill="#6012CE"/>
<path d="M45.1699 25.132C45.1303 24.9693 45.0857 24.8078 45.0359 24.6479C45.0089 24.541 44.9443 24.4474 44.8539 24.384C44.7454 24.3053 44.6189 24.2551 44.4859 24.238C44.3279 24.2 44.0959 24.164 43.8039 24.11C43.7179 24.1 43.6679 24.054 43.6679 23.99C43.6679 23.928 43.7179 23.8819 43.8159 23.8719C44.1093 23.8279 44.3366 23.7887 44.4979 23.754C44.6253 23.7371 44.7467 23.6897 44.8519 23.616C44.9362 23.5464 44.9998 23.4552 45.0359 23.3521C45.0719 23.2347 45.1206 23.0707 45.1819 22.86C45.1819 22.786 45.2419 22.75 45.3299 22.75C45.4126 22.75 45.4653 22.7867 45.4879 22.86C45.5373 23.0613 45.5859 23.2227 45.6339 23.344C45.6839 23.462 45.7339 23.544 45.8179 23.608C45.9224 23.6846 46.0439 23.7347 46.1719 23.754C46.3319 23.7887 46.5599 23.8279 46.8559 23.8719C46.9539 23.8819 47.0019 23.928 47.0019 23.99C47.0019 24.054 46.9539 24.1 46.8559 24.11C46.5599 24.154 46.3319 24.1934 46.1719 24.228C46.0415 24.2519 45.917 24.3016 45.8059 24.374C45.7262 24.4516 45.6636 24.5448 45.6219 24.6479C45.5703 24.81 45.5256 24.9742 45.4879 25.14C45.4759 25.214 45.4139 25.25 45.3279 25.25C45.2439 25.232 45.1819 25.196 45.1699 25.132ZM40.9679 23.574C40.913 23.5186 40.8755 23.4484 40.8599 23.3719C40.804 22.9251 40.7266 22.4813 40.6279 22.042C40.5763 21.7744 40.4478 21.5276 40.2579 21.332C40.0479 21.1424 39.7933 21.0089 39.5179 20.944C39.0587 20.8277 38.595 20.7297 38.1279 20.65C37.9279 20.604 37.8359 20.496 37.8359 20.326C37.8359 20.232 37.8659 20.17 37.9119 20.11C37.9708 20.0519 38.0463 20.0134 38.1279 20C38.7146 19.924 39.1779 19.8466 39.5179 19.7679C39.8579 19.6919 40.1046 19.5686 40.2579 19.3979C40.4468 19.1891 40.5748 18.9325 40.6279 18.656C40.7059 18.33 40.7819 17.8819 40.8599 17.2939C40.8759 17.0919 40.9839 17 41.1839 17C41.3699 17 41.4779 17.0919 41.5079 17.2939C41.5679 17.8659 41.6479 18.3 41.7239 18.624C41.8019 18.934 41.9239 19.1661 42.0939 19.3361C42.3132 19.5174 42.5722 19.6442 42.8499 19.7061C43.1899 19.8001 43.6539 19.892 44.2239 20.016C44.4106 20.0613 44.5033 20.17 44.5019 20.342C44.5019 20.526 44.3939 20.634 44.1779 20.666C43.6059 20.758 43.1579 20.852 42.8179 20.928C42.5416 20.9811 42.2854 21.1099 42.0779 21.3C41.8879 21.5026 41.7595 21.755 41.7079 22.028C41.6106 22.4715 41.5385 22.9202 41.4919 23.3719C41.4619 23.5739 41.3519 23.666 41.1679 23.666C41.1079 23.652 41.0279 23.636 40.9679 23.574Z" fill="white"/>
<path d="M20.3379 27.0039C21.258 27.0039 22.0039 26.258 22.0039 25.3379C22.0039 24.4178 21.258 23.6719 20.3379 23.6719C19.4178 23.6719 18.6719 24.4178 18.6719 25.3379C18.6719 26.258 19.4178 27.0039 20.3379 27.0039Z" fill="white"/>
<path fill-rule="evenodd" clip-rule="evenodd" d="M37.834 25.3281C37.834 26.0181 37.274 26.5781 36.584 26.5781H25.75C25.4185 26.5781 25.1005 26.4465 24.8661 26.212C24.6317 25.9776 24.5 25.6596 24.5 25.3281C24.5 24.9966 24.6317 24.6786 24.8661 24.4442C25.1005 24.2098 25.4185 24.0781 25.75 24.0781H36.584C37.274 24.0781 37.834 24.6361 37.834 25.3281Z" fill="white"/>
<path d="M20.3379 34.5039C21.258 34.5039 22.0039 33.758 22.0039 32.8379C22.0039 31.9178 21.258 31.1719 20.3379 31.1719C19.4178 31.1719 18.6719 31.9178 18.6719 32.8379C18.6719 33.758 19.4178 34.5039 20.3379 34.5039Z" fill="white"/>
<path fill-rule="evenodd" clip-rule="evenodd" d="M45.334 32.8281C45.334 33.5181 44.774 34.0781 44.084 34.0781H25.75C25.4185 34.0781 25.1005 33.9465 24.8661 33.712C24.6317 33.4776 24.5 33.1596 24.5 32.8281C24.5 32.4966 24.6317 32.1786 24.8661 31.9442C25.1005 31.7098 25.4185 31.5781 25.75 31.5781H44.084C44.774 31.5781 45.334 32.1361 45.334 32.8281Z" fill="white"/>
<path d="M20.3379 42.0039C21.258 42.0039 22.0039 41.258 22.0039 40.3379C22.0039 39.4178 21.258 38.6719 20.3379 38.6719C19.4178 38.6719 18.6719 39.4178 18.6719 40.3379C18.6719 41.258 19.4178 42.0039 20.3379 42.0039Z" fill="white"/>
<path fill-rule="evenodd" clip-rule="evenodd" d="M34.5 40.3281C34.5 41.0181 33.94 41.5781 33.25 41.5781H25.75C25.4185 41.5781 25.1005 41.4465 24.8661 41.212C24.6317 40.9776 24.5 40.6596 24.5 40.3281C24.5 39.9966 24.6317 39.6786 24.8661 39.4442C25.1005 39.2098 25.4185 39.0781 25.75 39.0781H33.25C33.94 39.0781 34.5 39.6361 34.5 40.3281Z" fill="white"/>
</svg>
