<svg width="64" height="64" viewBox="0 0 64 64" fill="none" xmlns="http://www.w3.org/2000/svg">
<rect width="64" height="64" rx="12" fill="#C31EFB" fill-opacity="0.16"/>
<path fill-rule="evenodd" clip-rule="evenodd" d="M18.41 12H45.59C47.8192 12 48.6275 12.2278 49.4425 12.6547C50.2478 13.0722 50.9063 13.7172 51.3325 14.5061C51.7683 15.3045 52 16.0963 52 18.2792V44.9053C52 47.0882 51.7675 47.88 51.3325 48.6784C50.9063 49.4673 50.2478 50.1123 49.4425 50.5298C48.6275 50.9567 47.8192 51.1837 45.59 51.1837H18.41C16.1808 51.1837 15.3725 50.9567 14.5575 50.5306C13.7521 50.1129 13.0935 49.4676 12.6675 48.6784C12.2317 47.88 12 47.0882 12 44.9053V18.2792C12 16.0963 12.2317 15.3045 12.6675 14.5061C13.0939 13.7171 13.7527 13.072 14.5583 12.6547C15.3733 12.2278 16.1808 12 18.41 12Z" fill="#DE13DE"/>
<path fill-rule="evenodd" clip-rule="evenodd" d="M29.4984 22.2089H20.3317C20.2212 22.2089 20.1152 22.2519 20.0371 22.3284C19.9589 22.405 19.915 22.5088 19.915 22.617V40.5762C19.915 40.6845 19.9589 40.7883 20.0371 40.8648C20.1152 40.9414 20.2212 40.9844 20.3317 40.9844H29.4984C29.6089 40.9844 29.7149 40.9414 29.793 40.8648C29.8711 40.7883 29.915 40.6845 29.915 40.5762V22.617C29.915 22.5088 29.8711 22.405 29.793 22.3284C29.7149 22.2519 29.6089 22.2089 29.4984 22.2089ZM20.3317 20.9844C19.8897 20.9844 19.4658 21.1564 19.1532 21.4626C18.8406 21.7687 18.665 22.184 18.665 22.617V40.5762C18.665 41.0092 18.8406 41.4245 19.1532 41.7307C19.4658 42.0369 19.8897 42.2089 20.3317 42.2089H29.4984C29.9404 42.2089 30.3643 42.0369 30.6769 41.7307C30.9894 41.4245 31.165 41.0092 31.165 40.5762V22.617C31.165 22.184 30.9894 21.7687 30.6769 21.4626C30.3643 21.1564 29.9404 20.9844 29.4984 20.9844H20.3317Z" fill="#FFD4FF"/>
<path fill-rule="evenodd" clip-rule="evenodd" d="M34.5002 40.9844H43.6668C43.7773 40.9844 43.8833 40.9414 43.9615 40.8648C44.0396 40.7883 44.0835 40.6845 44.0835 40.5762V22.617C44.0835 22.5088 44.0396 22.405 43.9615 22.3284C43.8833 22.2519 43.7773 22.2089 43.6668 22.2089H34.5002C34.3897 22.2089 34.2837 22.2519 34.2055 22.3284C34.1274 22.405 34.0835 22.5088 34.0835 22.617V40.5762C34.0835 40.6845 34.1274 40.7883 34.2055 40.8648C34.2837 40.9414 34.3897 40.9844 34.5002 40.9844ZM43.6668 42.2089C44.1089 42.2089 44.5328 42.0369 44.8453 41.7307C45.1579 41.4245 45.3335 41.0092 45.3335 40.5762V22.617C45.3335 22.184 45.1579 21.7688 44.8453 21.4626C44.5328 21.1564 44.1089 20.9844 43.6668 20.9844H34.5002C34.0581 20.9844 33.6342 21.1564 33.3217 21.4626C33.0091 21.7688 32.8335 22.184 32.8335 22.617V40.5762C32.8335 41.0092 33.0091 41.4245 33.3217 41.7307C33.6342 42.0369 34.0581 42.2089 34.5002 42.2089H43.6668Z" fill="#E8EDF3"/>
<path d="M36.166 33.2304C36.166 33.0139 36.2538 32.8063 36.4101 32.6532C36.5664 32.5001 36.7783 32.4141 36.9993 32.4141H41.166C41.387 32.4141 41.599 32.5001 41.7553 32.6532C41.9116 32.8063 41.9993 33.0139 41.9993 33.2304V37.312C41.9993 37.5285 41.9116 37.7362 41.7553 37.8893C41.599 38.0423 41.387 38.1283 41.166 38.1283H36.9993C36.7783 38.1283 36.5664 38.0423 36.4101 37.8893C36.2538 37.7362 36.166 37.5285 36.166 37.312V33.2304Z" fill="#E8EDF3"/>
<path d="M41.166 25.0625H36.9993C36.5391 25.0625 36.166 25.428 36.166 25.8788C36.166 26.3297 36.5391 26.6952 36.9993 26.6952H41.166C41.6263 26.6952 41.9993 26.3297 41.9993 25.8788C41.9993 25.428 41.6263 25.0625 41.166 25.0625Z" fill="#E8EDF3"/>
<path d="M41.166 28.3359H36.9993C36.5391 28.3359 36.166 28.7014 36.166 29.1523C36.166 29.6031 36.5391 29.9686 36.9993 29.9686H41.166C41.6263 29.9686 41.9993 29.6031 41.9993 29.1523C41.9993 28.7014 41.6263 28.3359 41.166 28.3359Z" fill="#E8EDF3"/>
<path d="M27.0015 36.4922H22.8348C22.3746 36.4922 22.0015 36.8577 22.0015 37.3085C22.0015 37.7594 22.3746 38.1248 22.8348 38.1248H27.0015C27.4617 38.1248 27.8348 37.7594 27.8348 37.3085C27.8348 36.8577 27.4617 36.4922 27.0015 36.4922Z" fill="#FFD4FF"/>
<path d="M27.0015 33.2266H22.8348C22.3746 33.2266 22.0015 33.592 22.0015 34.0429C22.0015 34.4937 22.3746 34.8592 22.8348 34.8592H27.0015C27.4617 34.8592 27.8348 34.4937 27.8348 34.0429C27.8348 33.592 27.4617 33.2266 27.0015 33.2266Z" fill="#FFD4FF"/>
<path d="M22.0015 25.8788C22.0015 25.6623 22.0893 25.4547 22.2455 25.3016C22.4018 25.1485 22.6138 25.0625 22.8348 25.0625H27.0015C27.2225 25.0625 27.4344 25.1485 27.5907 25.3016C27.747 25.4547 27.8348 25.6623 27.8348 25.8788V29.9605C27.8348 30.177 27.747 30.3846 27.5907 30.5377C27.4344 30.6908 27.2225 30.7768 27.0015 30.7768H22.8348C22.6138 30.7768 22.4018 30.6908 22.2455 30.5377C22.0893 30.3846 22.0015 30.177 22.0015 29.9605V25.8788Z" fill="#FFD4FF"/>
</svg>
