<svg width="64" height="64" viewBox="0 0 64 64" fill="none" xmlns="http://www.w3.org/2000/svg">
<path fill-rule="evenodd" clip-rule="evenodd" d="M18.41 12H45.59C47.818 12 48.628 12.232 49.442 12.668C50.256 13.104 50.896 13.744 51.332 14.558C51.768 15.372 52 16.18 52 18.41V45.59C52 47.82 51.768 48.628 51.332 49.442C50.9049 50.2466 50.2466 50.9049 49.442 51.332C48.628 51.768 47.82 52 45.59 52H18.41C16.18 52 15.372 51.768 14.558 51.332C13.7534 50.9049 13.0951 50.2466 12.668 49.442C12.232 48.628 12 47.82 12 45.59V18.41C12 16.18 12.232 15.372 12.668 14.558C13.104 13.744 13.744 13.104 14.558 12.668C15.372 12.232 16.18 12 18.41 12Z" fill="#FEA700"/>
<path d="M32.0019 33.6601C32.922 33.6601 33.6679 32.9142 33.6679 31.9941C33.6679 31.074 32.922 30.3281 32.0019 30.3281C31.0818 30.3281 30.3359 31.074 30.3359 31.9941C30.3359 32.9142 31.0818 33.6601 32.0019 33.6601Z" fill="white"/>
<path d="M37.5717 39.1077L37.5517 43.1137C37.5501 43.4087 37.4322 43.6911 37.2237 43.8997C37.0151 44.1082 36.7327 44.2261 36.4377 44.2277C36.2928 44.2285 36.1493 44.2005 36.0153 44.1454C35.8814 44.0903 35.7597 44.0091 35.6574 43.9066C35.5551 43.8041 35.4741 43.6823 35.4192 43.5482C35.3643 43.4142 35.3366 43.2706 35.3377 43.1257L35.3697 36.4837C35.3713 36.1888 35.4891 35.9063 35.6977 35.6977C35.9063 35.4892 36.1887 35.3713 36.4837 35.3697L43.1257 35.3377C43.2704 35.3367 43.414 35.3644 43.5479 35.4193C43.6818 35.4742 43.8035 35.5552 43.9059 35.6575C44.0082 35.7599 44.0892 35.8815 44.1441 36.0155C44.199 36.1494 44.2268 36.2929 44.2257 36.4377C44.2241 36.7323 44.1065 37.0145 43.8984 37.223C43.6902 37.4315 43.4083 37.5496 43.1137 37.5517L38.8677 37.5717L45.0517 43.7577C45.2363 43.946 45.339 44.1997 45.3375 44.4634C45.336 44.7271 45.2304 44.9795 45.0437 45.1657C44.8575 45.3524 44.605 45.458 44.3413 45.4595C44.0776 45.461 43.824 45.3583 43.6357 45.1737L37.5717 39.1077ZM26.4397 25.0237L26.4597 21.0177C26.4613 20.7231 26.5789 20.441 26.787 20.2324C26.9952 20.0239 27.2771 19.9058 27.5717 19.9037C27.7165 19.9029 27.8601 19.9309 27.9941 19.986C28.128 20.0411 28.2497 20.1223 28.352 20.2248C28.4543 20.3273 28.5353 20.4492 28.5902 20.5832C28.645 20.7173 28.6728 20.8609 28.6717 21.0057L28.6397 27.6477C28.6381 27.9423 28.5205 28.2245 28.3124 28.433C28.1042 28.6415 27.8223 28.7596 27.5277 28.7617L20.8857 28.7937C20.7408 28.795 20.597 28.7675 20.4629 28.7127C20.3287 28.6579 20.2068 28.577 20.1042 28.4746C20.0016 28.3722 19.9205 28.2505 19.8654 28.1164C19.8104 27.9823 19.7826 27.8386 19.7837 27.6937C19.7853 27.3991 19.9029 27.117 20.111 26.9084C20.3192 26.6999 20.6011 26.5818 20.8957 26.5797L25.1417 26.5597L18.9577 20.3737C18.7731 20.1854 18.6704 19.9318 18.6719 19.6681C18.6734 19.4044 18.779 19.1519 18.9657 18.9657C19.1519 18.779 19.4044 18.6734 19.6681 18.6719C19.9318 18.6704 20.1854 18.7731 20.3737 18.9577L26.4397 25.0237ZM26.4397 39.1077L26.4597 43.1137C26.4617 43.7257 26.9597 44.2237 27.5717 44.2277C27.7165 44.2285 27.8601 44.2005 27.9941 44.1454C28.128 44.0903 28.2497 44.0091 28.352 43.9066C28.4543 43.8041 28.5353 43.6823 28.5902 43.5482C28.645 43.4142 28.6728 43.2706 28.6717 43.1257L28.6397 36.4837C28.6381 36.1891 28.5205 35.907 28.3124 35.6984C28.1042 35.4899 27.8223 35.3718 27.5277 35.3697L20.8857 35.3377C20.7408 35.3364 20.597 35.3639 20.4629 35.4187C20.3287 35.4735 20.2068 35.5544 20.1042 35.6568C20.0016 35.7592 19.9205 35.881 19.8654 36.015C19.8104 36.1491 19.7826 36.2928 19.7837 36.4377C19.7857 37.0497 20.2837 37.5477 20.8957 37.5517L25.1417 37.5717L18.9577 43.7577C18.7731 43.946 18.6704 44.1997 18.6719 44.4634C18.6734 44.7271 18.779 44.9795 18.9657 45.1657C19.3577 45.5557 19.9857 45.5597 20.3737 45.1737L26.4397 39.1077ZM37.5717 25.0237L37.5517 21.0177C37.5501 20.7228 37.4322 20.4403 37.2237 20.2317C37.0151 20.0232 36.7327 19.9053 36.4377 19.9037C36.2928 19.9029 36.1493 19.9309 36.0153 19.986C35.8814 20.0411 35.7597 20.1223 35.6574 20.2248C35.5551 20.3273 35.4741 20.4492 35.4192 20.5832C35.3643 20.7173 35.3366 20.8609 35.3377 21.0057L35.3697 27.6477C35.3737 28.2597 35.8717 28.7577 36.4837 28.7617L43.1257 28.7937C43.2704 28.7948 43.414 28.767 43.5479 28.7121C43.6818 28.6572 43.8035 28.5763 43.9059 28.4739C44.0082 28.3715 44.0892 28.2499 44.1441 28.1159C44.199 27.982 44.2268 27.8385 44.2257 27.6937C44.2241 27.3991 44.1065 27.117 43.8984 26.9084C43.6902 26.6999 43.4083 26.5818 43.1137 26.5797L38.8677 26.5597L45.0517 20.3737C45.2363 20.1854 45.339 19.9318 45.3375 19.6681C45.336 19.4044 45.2304 19.1519 45.0437 18.9657C44.8575 18.779 44.605 18.6734 44.3413 18.6719C44.0776 18.6704 43.824 18.7731 43.6357 18.9577L37.5717 25.0237Z" fill="white"/>
<rect width="64" height="64" rx="12" fill="#8FBC5D" fill-opacity="0.16"/>
</svg>
