<svg width="64" height="64" viewBox="0 0 64 64" fill="none" xmlns="http://www.w3.org/2000/svg">
<rect width="64" height="64" rx="12" fill="#0E87D4" fill-opacity="0.16"/>
<g clip-path="url(#clip0_635_2681)">
<path d="M18.4 12H45.6C47.8258 12 48.6608 12.2083 49.4258 12.6958C50.2438 13.0951 50.9049 13.7562 51.3042 14.5742C51.7217 15.4083 52 16.1742 52 18.4V45.6C52 47.8258 51.7917 48.6608 51.3042 49.4258C50.9049 50.2438 50.2438 50.9049 49.4258 51.3042C48.5917 51.7217 47.8258 52 45.6 52H18.4C16.1742 52 15.3392 51.7917 14.5742 51.3042C13.8083 50.8175 13.1133 50.2608 12.6958 49.4258C12.2783 48.5917 12 47.8258 12 45.6V18.4C12 16.1742 12.2083 15.3392 12.6958 14.5742C13.0951 13.7562 13.7562 13.0951 14.5742 12.6958C15.3392 12.2083 16.1742 12 18.4 12Z" fill="#0E87D4"/>
<path d="M29.3332 23.9974H35.7332C37.2265 23.9974 37.9732 23.9974 38.544 24.2882C39.0456 24.5439 39.4534 24.9517 39.709 25.4532C39.9998 26.0241 39.9998 26.7699 39.9998 28.2641V34.6641M18.6665 23.9974H23.9998M39.9998 39.9974V45.3307M45.3332 39.9974H28.2665C26.7732 39.9974 26.0265 39.9974 25.4557 39.7066C24.9541 39.4509 24.5463 39.0431 24.2907 38.5416C23.9998 37.9707 23.9998 37.2249 23.9998 35.7307V18.6641" stroke="white" stroke-width="2.5" stroke-linecap="round" stroke-linejoin="round"/>
<path d="M28.25 28.6641H32.4167M28.25 31.9974H35.75M28.25 35.3307H35.75" stroke="#F2E7EF" stroke-width="2" stroke-linecap="round"/>
</g>
<defs>
<clipPath id="clip0_635_2681">
<rect width="40" height="40" fill="white" transform="translate(12 12)"/>
</clipPath>
</defs>
</svg>
