<svg width="64" height="64" viewBox="0 0 64 64" fill="none" xmlns="http://www.w3.org/2000/svg">
<rect width="64" height="64" rx="12" fill="#D2CC1E" fill-opacity="0.16"/>
<path fill-rule="evenodd" clip-rule="evenodd" d="M18.4096 12H45.5896C47.8184 12 48.6268 12.232 49.4416 12.668C50.2564 13.104 50.896 13.7432 51.3316 14.558C51.7672 15.3728 51.9996 16.1812 51.9996 18.41V45.59C51.9996 47.8188 51.7676 48.6272 51.3316 49.442C50.8956 50.2568 50.2564 50.8964 49.4416 51.332C48.6268 51.7676 47.8184 52 45.5896 52H18.4096C16.1808 52 15.3724 51.768 14.5576 51.332C13.7428 50.896 13.104 50.2568 12.668 49.442C12.232 48.6272 12 47.8192 12 45.5904V18.4104C12 16.1816 12.232 15.3732 12.668 14.5584C13.104 13.7436 13.7432 13.104 14.558 12.668C15.3728 12.232 16.1808 12 18.4096 12Z" fill="#D2CC1E" fill-opacity="0.807843"/>
<path fill-rule="evenodd" clip-rule="evenodd" d="M35.1933 27.9896L37.3585 29.7488C37.3846 29.7703 37.4049 29.798 37.4176 29.8293C37.4303 29.8606 37.4351 29.8945 37.4314 29.9281C37.4278 29.9617 37.4158 29.9939 37.3967 30.0217C37.3775 30.0495 37.3518 30.0722 37.3217 30.0876L34.8281 31.3444C34.7791 31.3684 34.7268 31.3851 34.6729 31.394L34.6185 31.4004C34.4702 31.4139 34.3224 31.3695 34.2061 31.2764C34.1273 31.2142 34.0675 31.1312 34.0335 31.0367C33.9996 30.9422 33.9928 30.8401 34.0141 30.742L34.0289 30.6884L34.8721 28.0884C34.8824 28.0571 34.9002 28.0289 34.9238 28.0059C34.9474 27.983 34.9763 27.9662 35.0078 27.9568C35.0394 27.9475 35.0727 27.9459 35.105 27.9522C35.1373 27.9586 35.1676 27.9726 35.1933 27.9932V27.9896ZM41.4133 19.7804C41.6968 19.4635 42.087 19.2619 42.5095 19.2141C42.932 19.1663 43.3574 19.2756 43.7045 19.5212L43.7773 19.5756L44.2013 19.9276C44.37 20.0671 44.5095 20.2386 44.6115 20.4323C44.7135 20.626 44.7761 20.838 44.7957 21.056C44.8316 21.4634 44.7147 21.8696 44.4677 22.1956L44.4085 22.2692L38.4485 29.2956C38.3045 29.4656 38.0505 29.4876 37.8793 29.3456L35.5133 27.3856C35.4719 27.3518 35.4376 27.3101 35.4124 27.2629C35.3873 27.2157 35.3718 27.164 35.3668 27.1107C35.3619 27.0575 35.3676 27.0038 35.3836 26.9528C35.3996 26.9018 35.4256 26.8545 35.4601 26.8136L41.4133 19.7804Z" fill="white"/>
<path d="M31.207 36.9913H28.2646M31.207 27.1953H28.2646M29.695 27.8761L29.6966 36.5025" stroke="#EBE9DA" stroke-width="1.46208" stroke-linecap="round" stroke-linejoin="round"/>
<path d="M21.5993 21.1961C21.3901 21.1961 21.2177 21.3545 21.1953 21.5581L21.1929 21.6021V42.4021C21.1929 42.6113 21.3513 42.7837 21.5549 42.8061L21.5989 42.8085H42.3989C42.6081 42.8085 42.7805 42.6501 42.8029 42.4465L42.8053 42.4025V28.9229C42.8044 28.8196 42.7641 28.7204 42.6927 28.6457C42.6213 28.5709 42.5241 28.5262 42.4209 28.5206C42.3177 28.515 42.2162 28.5489 42.1372 28.6155C42.0581 28.6821 42.0074 28.7763 41.9953 28.8789L41.9929 28.9229V41.9957H22.0049V22.0077H35.8849C36.0941 22.0077 36.2665 21.8493 36.2889 21.6457L36.2913 21.6017C36.2913 21.3925 36.1329 21.2201 35.9293 21.1977L35.8853 21.1953H21.5993V21.1961Z" fill="white"/>
<path d="M24.0021 21.6031C24.0021 20.2776 22.9276 19.2031 21.6021 19.2031C20.2767 19.2031 19.2021 20.2776 19.2021 21.6031C19.2021 22.9286 20.2767 24.0031 21.6021 24.0031C22.9276 24.0031 24.0021 22.9286 24.0021 21.6031Z" fill="white"/>
<path d="M24.0021 42.4C24.0021 41.0745 22.9276 40 21.6021 40C20.2767 40 19.2021 41.0745 19.2021 42.4C19.2021 43.7255 20.2767 44.8 21.6021 44.8C22.9276 44.8 24.0021 43.7255 24.0021 42.4Z" fill="white"/>
<path d="M44.8029 42.4C44.8029 41.0745 43.7284 40 42.4029 40C41.0774 40 40.0029 41.0745 40.0029 42.4C40.0029 43.7255 41.0774 44.8 42.4029 44.8C43.7284 44.8 44.8029 43.7255 44.8029 42.4Z" fill="white"/>
</svg>
