<svg width="64" height="64" viewBox="0 0 64 64" fill="none" xmlns="http://www.w3.org/2000/svg">
<rect width="64" height="64" rx="12" fill="#8FBC5D" fill-opacity="0.16"/>
<path fill-rule="evenodd" clip-rule="evenodd" d="M26.1414 39.4751H33.7815C35.7631 39.4751 36.4815 39.2687 37.2055 38.8815C37.9211 38.5022 38.506 37.9163 38.8839 37.1999C39.2711 36.4783 39.4775 35.7599 39.4775 33.7783V26.1406H47.8567C49.2967 26.1406 49.8191 26.291 50.3471 26.5726C50.8751 26.8542 51.2879 27.2686 51.5687 27.7942C51.8495 28.3198 52.0007 28.8422 52.0007 30.2846V47.8559C52.0007 49.2959 51.8511 49.8183 51.5687 50.3463C51.2921 50.8659 50.8667 51.2913 50.3471 51.5679C49.8191 51.8495 49.2975 51.9999 47.8567 51.9999H30.2846C28.8446 51.9999 28.3222 51.8503 27.7942 51.5679C27.2662 51.2855 26.8566 50.8719 26.5726 50.3463C26.2886 49.8207 26.1406 49.2967 26.1406 47.8559L26.1414 39.4751Z" fill="#5EA162"/>
<path d="M47.1532 41.7056C47.1532 41.324 46.8372 41.0152 46.4468 41.0152C46.0564 41.0152 45.7404 41.3248 45.7404 41.7056V44.7808L41.6244 40.7432C41.4908 40.6123 41.3113 40.5391 41.1244 40.5391C40.9374 40.5391 40.7579 40.6123 40.6244 40.7432C40.5592 40.8065 40.5073 40.8822 40.4718 40.9659C40.4364 41.0496 40.4181 41.1395 40.418 41.2304C40.4181 41.3218 40.4364 41.4122 40.4718 41.4964C40.5073 41.5806 40.5591 41.6569 40.6244 41.7208L44.7404 45.7608H41.6092C41.2188 45.7608 40.9028 46.0704 40.9028 46.4544C40.9028 46.8384 41.2188 47.148 41.6092 47.148H46.4492C46.5416 47.1468 46.6328 47.1278 46.718 47.092C46.8029 47.0581 46.8803 47.0078 46.9458 46.944C47.0113 46.8802 47.0635 46.8041 47.0996 46.72C47.1359 46.6363 47.1539 46.5457 47.1524 46.4544L47.1556 41.7072L47.1532 41.7056Z" fill="white"/>
<path fill-rule="evenodd" clip-rule="evenodd" d="M33.7161 37.8593H16.144C14.704 37.8593 14.1816 37.7097 13.6536 37.4249C13.1256 37.1401 12.712 36.7313 12.432 36.2033C12.152 35.6753 12 35.1601 12 33.7161V16.144C12 14.704 12.1504 14.1816 12.432 13.6536C12.7083 13.1338 13.1334 12.7082 13.6528 12.4312C14.1816 12.1504 14.704 12 16.144 12H33.7161C35.1561 12 35.6785 12.1504 36.2065 12.432C36.7345 12.7136 37.1441 13.128 37.4281 13.6536C37.7121 14.1792 37.8601 14.704 37.8601 16.144V33.7161C37.8601 35.1561 37.7105 35.6785 37.4281 36.2065C37.1457 36.7345 36.7321 37.1473 36.2065 37.4281C35.6809 37.7089 35.1569 37.8593 33.7161 37.8593Z" fill="#C2E5C3"/>
<path fill-rule="evenodd" clip-rule="evenodd" d="M27.2891 30.8032L25.2827 27.0272C25.2011 26.8864 25.1267 26.6272 25.0427 26.2488H25.0107C24.9728 26.4269 24.8832 26.6968 24.7419 27.0584L22.7211 30.8032H19.6011L23.3131 25.0032L19.9171 19.2031H23.1107L24.7763 22.6815C24.9075 22.9567 25.0267 23.2847 25.1267 23.6631H25.1587C25.2243 23.4351 25.3459 23.1007 25.5243 22.6503L27.3771 19.2031H30.3051L26.8091 24.9552L30.4011 30.8032H27.2891Z" fill="#2E7237"/>
</svg>
