<svg width="64" height="64" viewBox="0 0 64 64" fill="none" xmlns="http://www.w3.org/2000/svg">
<rect width="64" height="64" rx="12" fill="#04CDD4" fill-opacity="0.16"/>
<path fill-rule="evenodd" clip-rule="evenodd" d="M26.1414 39.4751H33.7815C35.7631 39.4751 36.4815 39.2687 37.2055 38.8815C37.9211 38.5022 38.506 37.9163 38.8839 37.1999C39.2711 36.4783 39.4775 35.7599 39.4775 33.7783V26.1406H47.8567C49.2967 26.1406 49.8191 26.291 50.3471 26.5726C50.8751 26.8542 51.2879 27.2686 51.5687 27.7942C51.8495 28.3198 52.0007 28.8422 52.0007 30.2846V47.8559C52.0007 49.2959 51.8511 49.8183 51.5687 50.3463C51.2921 50.8659 50.8667 51.2913 50.3471 51.5679C49.8191 51.8495 49.2975 51.9999 47.8567 51.9999H30.2846C28.8446 51.9999 28.3222 51.8503 27.7942 51.5679C27.2662 51.2855 26.8566 50.8719 26.5726 50.3463C26.2886 49.8207 26.1406 49.2967 26.1406 47.8559L26.1414 39.4751Z" fill="#04CDD4"/>
<path d="M47.1532 41.7056C47.1532 41.324 46.8372 41.0152 46.4468 41.0152C46.0564 41.0152 45.7404 41.3248 45.7404 41.7056V44.7808L41.6244 40.7432C41.4908 40.6123 41.3113 40.5391 41.1244 40.5391C40.9374 40.5391 40.7579 40.6123 40.6244 40.7432C40.5592 40.8065 40.5073 40.8822 40.4718 40.9659C40.4364 41.0496 40.4181 41.1395 40.418 41.2304C40.4181 41.3218 40.4364 41.4122 40.4718 41.4964C40.5073 41.5806 40.5591 41.6569 40.6244 41.7208L44.7404 45.7608H41.6092C41.2188 45.7608 40.9028 46.0704 40.9028 46.4544C40.9028 46.8384 41.2188 47.148 41.6092 47.148H46.4492C46.5416 47.1468 46.6328 47.1278 46.718 47.092C46.8029 47.0581 46.8803 47.0078 46.9458 46.944C47.0113 46.8802 47.0635 46.8041 47.0996 46.72C47.1359 46.6363 47.1539 46.5457 47.1524 46.4544L47.1556 41.7072L47.1532 41.7056Z" fill="white"/>
<path fill-rule="evenodd" clip-rule="evenodd" d="M16.1472 12H33.7377C35.1777 12 35.7001 12.1504 36.2281 12.432C36.7497 12.7072 37.1753 13.136 37.4497 13.656C37.7313 14.1808 37.8817 14.7064 37.8817 16.1464V33.7337C37.8817 35.1777 37.7321 35.6993 37.4497 36.2273C37.1742 36.7478 36.7486 37.1734 36.2281 37.4489C35.7001 37.7305 35.1785 37.8809 33.7377 37.8809H16.1472C14.7072 37.8809 14.1816 37.7313 13.6568 37.4489C13.1363 37.1734 12.7107 36.7478 12.4352 36.2273C12.1504 35.7001 12 35.1785 12 33.7345V16.1472C12 14.7072 12.1504 14.1816 12.432 13.6568C12.7072 13.1352 13.136 12.7096 13.656 12.4328C14.176 12.156 14.7064 12 16.1472 12Z" fill="#DDFEFF"/>
<path fill-rule="evenodd" clip-rule="evenodd" d="M20.2245 22.3574V26.1078C20.2245 27.4358 19.4837 28.2358 18.0589 28.2358C16.3253 28.2358 16.0005 27.083 16.0005 26.4574C16.0005 25.923 16.2485 25.579 16.6885 25.579C17.2069 25.579 17.3389 25.9822 17.3389 26.419C17.3389 26.8318 17.5325 27.131 18.0429 27.131C18.5181 27.131 18.7837 26.779 18.7837 26.091V22.3614C18.7837 21.9294 19.0653 21.643 19.5053 21.643C19.9453 21.643 20.2269 21.931 20.2269 22.3614L20.2245 22.3574ZM21.5621 27.479V22.5974C21.5621 21.9574 21.8965 21.7534 22.4061 21.7534H24.6157C25.8285 21.7534 26.8061 22.3534 26.8061 23.7598C26.8061 24.9118 26.0061 25.7662 24.6061 25.7662H23.0061V27.4878C23.0061 27.9198 22.7221 28.2094 22.2845 28.2094C21.8469 28.2094 21.5629 27.919 21.5629 27.4878L21.5621 27.479ZM23.0061 22.8606V24.6542H24.3501C24.9317 24.6542 25.3629 24.3046 25.3629 23.7582C25.3629 23.1238 24.9149 22.8622 24.2029 22.8622L23.0061 22.8606ZM33.6342 25.3406V27.7278C33.635 27.792 33.6227 27.8557 33.5983 27.9151C33.5738 27.9744 33.5375 28.0282 33.4917 28.0732C33.4459 28.1182 33.3915 28.1535 33.3317 28.1769C33.2719 28.2003 33.2079 28.2114 33.1438 28.2094C32.7278 28.2094 32.6158 27.9534 32.5254 27.391C32.1126 27.9094 31.5414 28.2438 30.6438 28.2438C28.4093 28.2438 27.5533 26.703 27.5533 24.9278C27.5533 22.787 28.8909 21.6094 30.8534 21.6094C32.4566 21.6094 33.3094 22.5694 33.3094 23.131C33.3094 23.635 32.9414 23.7654 32.631 23.7654C31.919 23.7654 32.183 22.7718 30.775 22.7718C29.7813 22.7718 28.9965 23.4222 28.9965 25.0246C28.9965 26.2726 29.6125 27.1342 30.7934 27.1342C31.559 27.1342 32.2278 26.6158 32.2974 25.8406H31.3606C31.0542 25.8406 30.711 25.7286 30.711 25.2886C30.711 24.9366 30.9142 24.7366 31.2734 24.7366H33.0518C33.4734 24.7366 33.6422 24.9462 33.6422 25.343L33.6342 25.3406Z" fill="#04CDD4"/>
</svg>
