<svg width="64" height="64" viewBox="0 0 64 64" fill="none" xmlns="http://www.w3.org/2000/svg">
<rect width="64" height="64" rx="12" fill="#009DFF" fill-opacity="0.16"/>
<path fill-rule="evenodd" clip-rule="evenodd" d="M16.1508 12H33.7322C35.1738 12 35.6977 12.15 36.2255 12.4319C36.7514 12.7138 37.1653 13.1277 37.4472 13.6556C37.7292 14.1814 37.8791 14.7053 37.8791 16.1469V33.7283C37.8791 35.1699 37.7292 35.6938 37.4472 36.2216C37.1716 36.7421 36.746 37.1677 36.2255 37.4433C35.6977 37.7252 35.1738 37.8752 33.7322 37.8752H16.1508C14.7092 37.8752 14.1853 37.7252 13.6595 37.4433C13.1383 37.168 12.712 36.7424 12.4358 36.2216C12.1559 35.6938 12.0039 35.1699 12.0039 33.7283V16.1469C12.0039 14.7053 12.1539 14.1814 12.4358 13.6556C12.7116 13.1341 13.138 12.7077 13.6595 12.4319C14.1833 12.152 14.7092 12 16.1508 12Z" fill="#009DFF"/>
<path fill-rule="evenodd" clip-rule="evenodd" d="M47.8455 52.0002H30.2641C28.8225 52.0002 28.2986 51.8502 27.7708 51.5683C27.25 51.2921 26.8244 50.8658 26.5491 50.3446C26.2671 49.8188 26.1172 49.2949 26.1172 47.8533V30.2719C26.1172 28.8303 26.2671 28.3064 26.5491 27.7786C26.8247 27.2581 27.2503 26.8325 27.7708 26.5569C28.2986 26.275 28.8225 26.125 30.2641 26.125H47.8455C49.2871 26.125 49.811 26.275 50.3368 26.5569C50.8647 26.8368 51.2786 27.2527 51.5605 27.7786C51.8404 28.3064 51.9924 28.8303 51.9924 30.2719V47.8533C51.9924 49.2949 51.8424 49.8188 51.5605 50.3446C51.2786 50.8725 50.8647 51.2864 50.3368 51.5683C49.811 51.8482 49.2871 52.0002 47.8455 52.0002Z" fill="#009DFF"/>
<path d="M32.0015 33.6593C32.9214 33.6593 33.6671 32.9136 33.6671 31.9937C33.6671 31.0738 32.9214 30.3281 32.0015 30.3281C31.0816 30.3281 30.3359 31.0738 30.3359 31.9937C30.3359 32.9136 31.0816 33.6593 32.0015 33.6593Z" fill="white"/>
<path d="M37.5706 39.1023L37.5506 43.1073C37.5491 43.4022 37.4312 43.6845 37.2227 43.8931C37.0142 44.1016 36.7318 44.2194 36.4369 44.221C36.2921 44.2218 36.1486 44.1938 36.0147 44.1387C35.8808 44.0836 35.7591 44.0025 35.6568 43.9C35.5545 43.7975 35.4736 43.6757 35.4187 43.5417C35.3639 43.4077 35.3362 43.2641 35.3372 43.1193L35.3692 36.479C35.3708 36.1841 35.4886 35.9018 35.6972 35.6933C35.9057 35.4847 36.188 35.3669 36.4829 35.3653L43.1232 35.3333C43.2678 35.3325 43.4112 35.3604 43.545 35.4154C43.6787 35.4704 43.8003 35.5514 43.9026 35.6536C44.0048 35.7559 44.0858 35.8775 44.1408 36.0113C44.1958 36.145 44.2237 36.2884 44.2229 36.433C44.2213 36.7276 44.1038 37.0096 43.8957 37.2181C43.6876 37.4266 43.4057 37.5446 43.1112 37.5467L38.8663 37.5667L45.0487 43.7511C45.2332 43.9394 45.3359 44.1929 45.3344 44.4566C45.3329 44.7202 45.2273 44.9726 45.0407 45.1587C44.8545 45.3454 44.6021 45.451 44.3385 45.4525C44.0749 45.454 43.8213 45.3513 43.6331 45.1667L37.5706 39.1023ZM26.4416 25.022L26.4616 21.0171C26.4631 20.7225 26.5807 20.4405 26.7888 20.232C26.9969 20.0235 27.2787 19.9055 27.5733 19.9034C27.7181 19.9026 27.8616 19.9305 27.9955 19.9857C28.1294 20.0408 28.2511 20.1219 28.3534 20.2244C28.4557 20.3269 28.5366 20.4487 28.5915 20.5827C28.6463 20.7167 28.674 20.8603 28.673 21.0051L28.641 27.6453C28.6394 27.9399 28.5219 28.2219 28.3138 28.4304C28.1057 28.6389 27.8238 28.7569 27.5293 28.759L20.889 28.791C20.7442 28.7921 20.6006 28.7644 20.4666 28.7095C20.3326 28.6547 20.2108 28.5737 20.1083 28.4714C20.0059 28.3691 19.9247 28.2475 19.8696 28.1136C19.8145 27.9797 19.7865 27.8361 19.7873 27.6913C19.7889 27.3968 19.9064 27.1147 20.1145 26.9063C20.3226 26.6978 20.6045 26.5797 20.899 26.5776L25.1439 26.5576L18.9615 20.3733C18.777 20.185 18.6743 19.9314 18.6758 19.6678C18.6773 19.4042 18.7829 19.1518 18.9695 18.9656C19.1557 18.779 19.4081 18.6734 19.6717 18.6719C19.9353 18.6704 20.1889 18.7731 20.3772 18.9576L26.4416 25.022Z" fill="white"/>
</svg>
