<svg width="64" height="64" viewBox="0 0 64 64" fill="none" xmlns="http://www.w3.org/2000/svg">
<path d="M18.41 12H45.59C47.818 12 48.628 12.232 49.442 12.668C50.256 13.104 50.896 13.744 51.332 14.558C51.768 15.372 52 16.18 52 18.41V45.59C52 47.82 51.768 48.628 51.332 49.442C50.9049 50.2467 50.2466 50.905 49.442 51.332C48.628 51.768 47.82 52 45.59 52H18.41C16.18 52 15.372 51.768 14.558 51.332C13.7534 50.905 13.0951 50.2467 12.668 49.442C12.232 48.628 12 47.82 12 45.59V18.41C12 16.18 12.232 15.372 12.668 14.558C13.104 13.744 13.744 13.104 14.558 12.668C15.372 12.232 16.18 12 18.41 12Z" fill="#8FBC5D"/>
<path d="M41.018 34.4858C40.7853 34.4853 40.5623 34.3927 40.3977 34.2281C40.2332 34.0636 40.1405 33.8406 40.14 33.6079V26.9619C40.1406 26.4807 39.9566 26.0175 39.626 25.6678L34.408 21.0399C34.2482 20.8715 34.0559 20.7371 33.8428 20.645C33.6297 20.5529 33.4002 20.5049 33.168 20.5039H25.512C24.542 20.5039 23.756 21.3239 23.756 22.3339V24.2039C23.741 24.4265 23.6419 24.6351 23.4789 24.7875C23.3159 24.9398 23.1011 25.0245 22.878 25.0245C22.6549 25.0245 22.4401 24.9398 22.2771 24.7875C22.1141 24.6351 22.015 24.4265 22 24.2039V22.3339C22 20.3119 23.572 18.6719 25.51 18.6719H33.168C34.098 18.6719 34.992 19.0578 35.65 19.7458L40.868 24.3718C41.526 25.0598 41.896 25.9919 41.896 26.9619V33.6079C41.8955 33.8406 41.8028 34.0636 41.6383 34.2281C41.4737 34.3927 41.2507 34.4853 41.018 34.4858Z" fill="#E5F5D2"/>
<path d="M33.2422 18.6719L37.5662 22.9639L41.0262 27.2559H35.3222C34.7705 27.2559 34.2415 27.0367 33.8514 26.6466C33.4613 26.2565 33.2422 25.7276 33.2422 25.1759V18.6719Z" fill="#E5F5D2"/>
<path d="M18.6641 33.8781C18.6641 32.8401 19.3661 32 20.2341 32H43.7621C44.6281 32 45.3321 32.8401 45.3321 33.8781V43.4561C45.3321 44.4921 44.6281 45.334 43.7621 45.334H20.2341C19.3661 45.334 18.6641 44.4921 18.6641 43.4561V33.8781Z" fill="white"/>
<path d="M23.8359 33.125C25.0479 33.125 25.9539 33.4411 26.5199 34.0811C26.9626 34.5824 27.2253 35.2504 27.3079 36.0851L27.3279 36.405L27.3379 36.6951L27.3359 40.519L27.3299 40.8351C27.2833 41.8097 27.0133 42.5844 26.5199 43.1591C25.9519 43.8191 25.0459 44.145 23.8359 44.145C23.2199 44.145 22.6853 44.0611 22.2319 43.8931C21.7903 43.7385 21.3985 43.4676 21.0979 43.109C20.827 42.7687 20.6283 42.3767 20.5139 41.957C20.4379 41.6856 20.3871 41.4078 20.3619 41.1271L20.3419 40.817L20.3359 40.505V36.687L20.3419 36.399C20.3819 35.411 20.6506 34.6364 21.1479 34.0751C21.7139 33.4391 22.6179 33.125 23.8359 33.125ZM32.2919 33.125C33.4259 33.125 34.2719 33.4131 34.7979 33.9971C35.2046 34.4504 35.4466 35.0557 35.5239 35.813L35.5459 36.1051L35.5539 36.3971V36.5171C35.5539 37.1011 35.0339 37.5751 34.3979 37.5751C34.1514 37.5823 33.9092 37.5094 33.7076 37.3673C33.506 37.2252 33.356 37.0216 33.2799 36.787L33.2499 36.641L33.2399 36.519L33.2379 36.201L33.2239 35.821L33.2079 35.6431L33.1959 35.589L33.1279 35.3451L33.0999 35.265L33.0859 35.245C33.0429 35.1968 32.9975 35.1508 32.9499 35.1071C32.9261 35.0809 32.8957 35.0616 32.8619 35.051C32.6816 34.9969 32.4942 34.97 32.3059 34.9711C32.1505 34.9697 31.9955 34.9864 31.8439 35.021C31.7596 35.0405 31.6804 35.078 31.6119 35.131C31.5425 35.1923 31.4819 35.2631 31.4319 35.3411C31.3827 35.4358 31.3489 35.5377 31.3319 35.6431L31.2939 35.8771L31.2699 36.097L31.2579 36.5031L31.2559 40.651C31.2559 41.335 31.3479 41.801 31.5079 42.021C31.6379 42.199 31.8879 42.2931 32.3059 42.2931C32.4498 42.2939 32.5933 42.279 32.7339 42.249C32.8073 42.2347 32.8752 42.2 32.9299 42.149C32.9943 42.0874 33.0501 42.0175 33.0959 41.941C33.1423 41.8519 33.1715 41.7549 33.1819 41.655L33.2199 41.3611L33.2339 41.109L33.2399 40.603C33.2399 40.017 33.7599 39.545 34.3979 39.545C34.6444 39.5384 34.8863 39.6117 35.0875 39.7542C35.2887 39.8966 35.4383 40.1004 35.5139 40.3351L35.5439 40.4771L35.5539 40.6051V40.6691C35.5539 41.0731 35.5246 41.437 35.4659 41.761C35.4059 42.0983 35.3026 42.4143 35.1559 42.709C34.9999 43.021 34.7933 43.2824 34.5359 43.493C34.2773 43.7037 33.9559 43.8657 33.5719 43.979C33.1973 44.091 32.7706 44.1464 32.2919 44.145C31.7799 44.145 31.3239 44.081 30.9239 43.953C30.5515 43.8453 30.2056 43.6615 29.9079 43.4131C29.6368 43.1792 29.4169 42.8919 29.2619 42.5691C29.1024 42.25 28.9912 41.9088 28.9319 41.557C28.9025 41.3787 28.8812 41.1992 28.8679 41.019L28.8519 40.723L28.8459 40.427V36.8711C28.8459 36.4271 28.8759 36.029 28.9359 35.677C28.9986 35.3117 29.1086 34.9697 29.2659 34.651C29.4286 34.3163 29.6459 34.0377 29.9179 33.8151C30.1899 33.5924 30.5286 33.421 30.9339 33.301C31.3286 33.1837 31.7799 33.125 32.2919 33.125ZM39.9119 33.223C41.1493 33.2204 42.0773 33.4591 42.6959 33.9391C43.3319 34.4331 43.6439 35.2151 43.6439 36.2631C43.6439 37.4371 43.2739 38.273 42.5259 38.723L42.3299 38.8291L43.6499 42.9551L43.6639 43.0291L43.6719 43.1371C43.6719 43.6351 43.2319 44.035 42.6879 44.037C42.4469 44.0396 42.209 43.9826 41.9955 43.871C41.7819 43.7593 41.5993 43.5965 41.4639 43.3971L41.3759 43.2411L41.3199 43.0951L40.1279 39.3151H39.6239V42.943C39.6195 43.1381 39.5623 43.3284 39.4584 43.4935C39.3545 43.6587 39.2078 43.7925 39.0339 43.881L38.8919 43.9491L38.7399 43.999L38.5699 44.0291L38.4279 44.037C38.1705 44.0442 37.9178 43.967 37.7083 43.8171C37.4989 43.6673 37.3442 43.453 37.2679 43.207L37.2379 43.073L37.2299 42.943V34.2211C37.2299 33.7691 37.5599 33.383 38.0339 33.261L38.1799 33.2311L38.3199 33.223H39.9119ZM23.8379 34.9711C23.6317 34.9653 23.4261 34.9951 23.2299 35.0591C23.1205 35.0988 23.0275 35.1742 22.9659 35.2731C22.8819 35.406 22.8248 35.554 22.7979 35.709C22.7767 35.8098 22.7634 35.9121 22.7579 36.015L22.7499 36.1951L22.7459 36.4031V40.801L22.7499 41.019C22.7553 41.2137 22.7713 41.3804 22.7979 41.519C22.8278 41.6791 22.8853 41.8327 22.9679 41.973C23.0305 42.0758 23.1244 42.1558 23.2359 42.201C23.3839 42.2611 23.5839 42.2918 23.8359 42.2931C24.04 42.301 24.2436 42.2697 24.4359 42.201C24.5482 42.1562 24.6429 42.0762 24.7059 41.973C24.7886 41.8327 24.8461 41.6791 24.8759 41.519C24.8933 41.4257 24.9066 41.3203 24.9159 41.203L24.9259 41.021L24.9299 40.807V36.4091L24.9259 36.197C24.9199 36.0335 24.9039 35.8705 24.8779 35.709C24.851 35.554 24.794 35.406 24.7099 35.2731C24.6479 35.1738 24.5542 35.0984 24.4439 35.0591C24.2484 34.9954 24.0435 34.9656 23.8379 34.9711ZM39.6239 37.5551H39.8079C40.3239 37.5551 40.6959 37.4811 40.9199 37.3511L41.0059 37.2891C41.1959 37.1331 41.3099 36.7931 41.3099 36.2631C41.3099 35.7431 41.2099 35.399 41.0419 35.235C40.9219 35.119 40.6779 35.0351 40.3119 35.0011L40.1199 34.9871L39.9039 34.983H39.6239V37.5551Z" fill="#8FBC5D"/>
<rect width="64" height="64" rx="12" fill="#8FBC5D" fill-opacity="0.16"/>
</svg>
