<svg width="64" height="64" viewBox="0 0 64 64" fill="none" xmlns="http://www.w3.org/2000/svg">
<rect width="64" height="64" rx="12" fill="#E7BCAF"/>
<path fill-rule="evenodd" clip-rule="evenodd" d="M37.2146 34.4062H49.1727C50.1526 34.4062 50.5085 34.5082 50.8664 34.7002C51.2277 34.8935 51.505 35.1708 51.6983 35.5321C51.8903 35.89 51.9923 36.246 51.9923 37.2258V49.1839C51.9923 50.1638 51.8903 50.5197 51.6983 50.8777C51.5107 51.2321 51.2209 51.5219 50.8664 51.7095C50.5085 51.9015 50.1526 52.0035 49.1727 52.0035H37.2146C36.2347 52.0035 35.8788 51.9015 35.5208 51.7095C35.1664 51.5219 34.8766 51.2321 34.689 50.8777C34.497 50.5197 34.395 50.1638 34.395 49.1839V37.2258C34.395 36.246 34.497 35.89 34.689 35.5321C34.8766 35.1777 35.1664 34.8878 35.5208 34.7002C35.8788 34.5082 36.2347 34.4062 37.2146 34.4062Z" fill="#FFF4F0"/>
<path fill-rule="evenodd" clip-rule="evenodd" d="M14.8196 12H26.7777C27.7575 12 28.1135 12.102 28.4714 12.294C28.8327 12.4873 29.11 12.7646 29.3033 13.1258C29.4953 13.4838 29.5972 13.8397 29.5972 14.8196V49.1742C29.5972 50.154 29.4953 50.51 29.3033 50.8679C29.1157 51.2223 28.8259 51.5122 28.4714 51.6998C28.1135 51.8918 27.7575 51.9937 26.7777 51.9937H14.8196C13.8397 51.9937 13.4838 51.8918 13.1258 51.6998C12.7714 51.5122 12.4816 51.2223 12.294 50.8679C12.102 50.51 12 50.154 12 49.1742V14.8196C12 13.8397 12.102 13.4838 12.294 13.1258C12.4816 12.7714 12.7714 12.4816 13.1258 12.294C13.4838 12.102 13.8397 12 14.8196 12Z" fill="#DE4D1D"/>
<path fill-rule="evenodd" clip-rule="evenodd" d="M37.2146 12H49.1727C50.1526 12 50.5085 12.102 50.8664 12.294C51.2277 12.4873 51.505 12.7646 51.6983 13.1258C51.8903 13.4838 51.9923 13.8397 51.9923 14.8196V26.7777C51.9923 27.7575 51.8903 28.1135 51.6983 28.4714C51.5107 28.8259 51.2209 29.1157 50.8664 29.3033C50.5085 29.4953 50.1526 29.5973 49.1727 29.5973H37.2146C36.2347 29.5973 35.8788 29.4953 35.5208 29.3033C35.1664 29.1157 34.8766 28.8259 34.689 28.4714C34.497 28.1135 34.395 27.7575 34.395 26.7777V14.8196C34.395 13.8397 34.497 13.4838 34.689 13.1258C34.8766 12.7714 35.1664 12.4816 35.5208 12.294C35.8788 12.102 36.2347 12 37.2146 12Z" fill="#FFF4F0"/>
<path fill-rule="evenodd" clip-rule="evenodd" d="M40.1536 23.1002L42.2433 17.6851C42.3832 17.3291 42.6372 17.2031 43.0331 17.2031H43.4171C43.781 17.2031 44.107 17.2891 44.2849 17.783L46.2366 23.1002C46.2966 23.2542 46.3946 23.5341 46.3946 23.7081C46.3946 24.094 46.0487 24.402 45.6347 24.402C45.2808 24.402 45.0248 24.276 44.9068 23.9681L44.4909 22.8102H41.8893L41.4654 23.9681C41.3554 24.276 41.1294 24.402 40.7455 24.402C40.3016 24.402 39.9956 24.132 39.9956 23.7081C39.9956 23.5341 40.0956 23.2542 40.1536 23.1002ZM44.137 21.7104L43.2191 18.9209H43.1991L42.2433 21.7104H44.137ZM40.3955 45.4927V40.5055C40.3955 39.8176 40.7495 39.5996 41.2894 39.5996H43.3171C44.4329 39.5996 45.7627 39.8556 45.7627 41.3554C45.7659 41.6538 45.6775 41.9461 45.5095 42.1929C45.3414 42.4396 45.1018 42.6288 44.8228 42.7351V42.7531C45.5287 42.9431 45.9947 43.453 45.9947 44.3869C45.9947 45.8127 44.8508 46.3986 43.5291 46.3986H41.2894C40.7495 46.3986 40.3955 46.1806 40.3955 45.4927ZM41.9213 43.377V45.2088H43.2051C43.799 45.2088 44.4689 45.0868 44.4689 44.3029C44.4689 43.481 43.763 43.377 43.0191 43.377H41.9213ZM41.9213 40.7334V42.3952H43.1771C43.893 42.3952 44.2369 42.1012 44.2369 41.5633C44.2369 40.9114 43.697 40.7334 43.1311 40.7334H41.9213Z" fill="#DE4D1D"/>
<path d="M20.7979 23.2619L24.4273 26.9213C24.4906 26.9857 24.5661 27.0368 24.6493 27.0717C24.7326 27.1066 24.822 27.1246 24.9122 27.1246C25.0025 27.1246 25.0919 27.1066 25.1752 27.0717C25.2584 27.0368 25.3339 26.9857 25.3972 26.9213C25.5248 26.7905 25.5963 26.6151 25.5963 26.4323C25.5963 26.2496 25.5248 26.0742 25.3972 25.9434L21.2818 21.7961C21.2186 21.732 21.1432 21.6811 21.0601 21.6464C20.9771 21.6116 20.8879 21.5938 20.7979 21.5938C20.7078 21.5938 20.6187 21.6116 20.5356 21.6464C20.4526 21.6811 20.3772 21.732 20.314 21.7961L16.1986 25.9434C16.071 26.0742 15.9995 26.2496 15.9995 26.4323C15.9995 26.6151 16.071 26.7905 16.1986 26.9213C16.2619 26.9857 16.3374 27.0368 16.4206 27.0717C16.5039 27.1066 16.5932 27.1246 16.6835 27.1246C16.7738 27.1246 16.8632 27.1066 16.9464 27.0717C17.0297 27.0368 17.1052 26.9857 17.1685 26.9213L20.7979 23.2619ZM20.7979 40.6591L24.4273 36.9997C24.4906 36.9353 24.5661 36.8842 24.6493 36.8493C24.7326 36.8143 24.822 36.7964 24.9122 36.7964C25.0025 36.7964 25.0919 36.8143 25.1752 36.8493C25.2584 36.8842 25.3339 36.9353 25.3972 36.9997C25.5248 37.1304 25.5963 37.3059 25.5963 37.4886C25.5963 37.6713 25.5248 37.8468 25.3972 37.9775L21.2818 42.1249C21.2186 42.189 21.1432 42.2399 21.0601 42.2746C20.9771 42.3093 20.8879 42.3272 20.7979 42.3272C20.7078 42.3272 20.6187 42.3093 20.5356 42.2746C20.4526 42.2399 20.3772 42.189 20.314 42.1249L16.1986 37.9775C16.071 37.8468 15.9995 37.6713 15.9995 37.4886C15.9995 37.3059 16.071 37.1304 16.1986 36.9997C16.2619 36.9353 16.3374 36.8842 16.4206 36.8493C16.5039 36.8143 16.5932 36.7964 16.6835 36.7964C16.7738 36.7964 16.8632 36.8143 16.9464 36.8493C17.0297 36.8842 17.1052 36.9353 17.1685 36.9997L20.7979 40.6591Z" fill="white"/>
<path d="M20.7989 34.038C21.9353 34.038 22.8566 33.1096 22.8566 31.9643C22.8566 30.819 21.9353 29.8906 20.7989 29.8906C19.6625 29.8906 18.7412 30.819 18.7412 31.9643C18.7412 33.1096 19.6625 34.038 20.7989 34.038Z" fill="white"/>
</svg>
