<svg width="64" height="64" viewBox="0 0 64 64" fill="none" xmlns="http://www.w3.org/2000/svg">
<rect width="64" height="64" rx="12" fill="#2C57BD" fill-opacity="0.16"/>
<path fill-rule="evenodd" clip-rule="evenodd" d="M36.278 33.276H48.998C50.044 33.276 50.422 33.386 50.802 33.59C51.1847 33.7954 51.48 34.09 51.688 34.474C51.892 34.856 52 35.234 52 36.276V49C52 50.042 51.892 50.422 51.688 50.802C51.4887 51.1799 51.1799 51.4887 50.802 51.688C50.422 51.892 50.042 52 49 52H36.278C35.234 52 34.856 51.892 34.474 51.688C34.0969 51.4883 33.7888 51.1796 33.59 50.802C33.386 50.422 33.276 50.042 33.276 49V36.276C33.276 35.234 33.386 34.856 33.59 34.474C33.7953 34.09 34.09 33.7954 34.474 33.59C34.854 33.386 35.234 33.276 36.278 33.276ZM36.278 12H48.998C50.044 12 50.422 12.108 50.802 12.312C51.1847 12.5187 51.48 12.814 51.688 13.198C51.892 13.578 52 13.958 52 15V27.724C52 28.766 51.892 29.144 51.688 29.526C51.4884 29.9031 51.1796 30.2112 50.802 30.41C50.422 30.614 50.042 30.724 49 30.724H36.278C35.234 30.724 34.856 30.614 34.474 30.41C34.0972 30.2109 33.7891 29.9028 33.59 29.526C33.386 29.144 33.276 28.766 33.276 27.724V15C33.276 13.958 33.386 13.578 33.59 13.198C33.7953 12.814 34.09 12.5187 34.474 12.312C34.854 12.108 35.234 12 36.278 12ZM15 33.276H27.724C28.766 33.276 29.144 33.386 29.526 33.59C29.906 33.794 30.206 34.092 30.41 34.474C30.614 34.856 30.724 35.234 30.724 36.276V49C30.724 50.042 30.614 50.422 30.41 50.802C30.2112 51.1796 29.9031 51.4883 29.526 51.688C29.146 51.892 28.766 52 27.724 52H15C13.958 52 13.58 51.892 13.198 51.688C12.8201 51.4887 12.5113 51.1799 12.312 50.802C12.108 50.422 12 50.042 12 49V36.276C12 35.234 12.108 34.856 12.312 34.474C12.5116 34.0969 12.8204 33.7888 13.198 33.59C13.578 33.386 13.958 33.276 15 33.276ZM15 12H27.724C28.766 12 29.144 12.108 29.526 12.312C29.906 12.516 30.206 12.816 30.41 13.198C30.614 13.578 30.724 13.958 30.724 15V27.724C30.724 28.766 30.614 29.144 30.41 29.526C30.2047 29.91 29.91 30.2046 29.526 30.41C29.146 30.614 28.766 30.724 27.724 30.724H15C13.958 30.724 13.58 30.614 13.198 30.41C12.8204 30.2112 12.5116 29.9031 12.312 29.526C12.108 29.144 12 28.766 12 27.724V15C12 13.958 12.108 13.578 12.312 13.198C12.5187 12.814 12.814 12.5187 13.198 12.312C13.578 12.108 13.958 12 15 12Z" fill="#2C57BD"/>
<path fill-rule="evenodd" clip-rule="evenodd" d="M20.8008 24.1454V19.9413H19.3728C19.0088 19.9413 18.8088 19.8093 18.8088 19.3553C18.8088 18.9453 19.0288 18.8353 19.6068 18.7253L20.0148 18.6373C21.2428 18.3713 20.9008 17.1094 21.8408 17.1094C22.1948 17.1094 22.4808 17.2653 22.4808 17.8613V24.1454C22.4808 24.7214 22.2608 25.1194 21.6408 25.1194C21.0208 25.1194 20.8008 24.7214 20.8008 24.1454ZM41.4868 23.5814H44.8068C45.2268 23.5814 45.5348 23.7814 45.5348 24.2794C45.5348 24.7774 45.2248 24.9753 44.7148 24.9753H40.5668C39.9268 24.9753 39.6608 24.5453 39.6608 24.1573C39.6608 23.3713 40.3568 22.4974 41.7408 21.6234C43.2788 20.6494 43.8088 20.4514 43.8088 19.5554C43.8088 18.8354 43.2568 18.4374 42.6488 18.4374C41.9388 18.4374 41.4628 18.7254 41.2208 19.6094C41.1108 20.0194 40.9668 20.2294 40.5228 20.2294C40.0708 20.2294 39.7148 20.0414 39.7148 19.4894C39.7148 18.1394 41.0428 17.1094 42.6688 17.1094C44.4408 17.1094 45.4908 18.2714 45.4908 19.2894C45.4908 20.7614 44.8168 21.3353 43.6428 21.9993C42.3928 22.7073 41.6308 23.1614 41.4868 23.5814ZM18.3848 44.9073C18.3848 44.4553 18.7148 44.1334 19.1688 44.1334C20.1548 44.1334 19.6228 45.4954 21.1488 45.4954C21.9788 45.4954 22.4228 44.9854 22.4228 44.2994C22.4228 43.7694 22.1888 43.3813 21.4268 43.3033C21.1168 43.2713 20.5068 43.2154 20.5068 42.7054C20.5068 42.1314 20.8408 42.0093 21.4708 41.9753C22.0248 41.9433 22.3108 41.6213 22.3108 41.1133C22.3108 40.4493 21.7908 40.1393 21.2048 40.1393C19.8648 40.1393 20.1768 41.4014 19.3028 41.4014C18.9268 41.4014 18.5608 41.2354 18.5608 40.7374C18.5608 39.3874 20.1648 38.8113 21.2388 38.8113C23.1528 38.8113 23.8588 39.8853 23.8588 40.9573C23.8588 41.6653 23.5388 42.1754 22.9188 42.5074C23.7488 42.7394 24.1048 43.4033 24.1048 44.2333C24.1048 45.9813 22.7548 46.8214 21.1168 46.8214C19.0368 46.8214 18.3828 45.5273 18.3828 44.9073M42.8528 43.6473V40.7814H42.8308L40.6948 43.6473H42.8528ZM42.8528 46.0474V44.9073H40.0768C39.5008 44.9073 39.2348 44.4994 39.2348 44.1454C39.2348 43.8574 39.3008 43.6793 39.4448 43.4913L42.8528 39.1213C43.0188 38.9013 43.2628 38.8113 43.5728 38.8113C44.1688 38.8113 44.4008 39.1334 44.4008 39.6094V43.6473H44.9548C45.3308 43.6473 45.5748 43.9113 45.5748 44.2773C45.5748 44.6433 45.3308 44.9073 44.9548 44.9073H44.4008V46.0474C44.4008 46.5114 44.2008 46.8214 43.6268 46.8214C43.0528 46.8214 42.8528 46.5114 42.8528 46.0474Z" fill="white"/>
</svg>
