<svg width="64" height="64" viewBox="0 0 64 64" fill="none" xmlns="http://www.w3.org/2000/svg">
<rect width="64" height="64" rx="12" fill="#5F83C6" fill-opacity="0.16"/>
<path fill-rule="evenodd" clip-rule="evenodd" d="M16.1478 12H33.733C35.1749 12 35.6989 12.15 36.2268 12.4319C36.7528 12.7139 37.1668 13.1278 37.4488 13.6557C37.7308 14.1816 37.8808 14.7055 37.8808 16.1472V33.7298C37.8808 35.1735 37.7308 35.6955 37.4488 36.2234C37.1688 36.7493 36.7528 37.1632 36.2268 37.4451C35.6989 37.7271 35.1749 37.877 33.733 37.877H16.1478C14.7059 37.877 14.1819 37.7271 13.6559 37.4451C13.1346 37.1698 12.7082 36.7441 12.432 36.2234C12.152 35.6955 12 35.1735 12 33.7298V16.1472C12 14.7055 12.15 14.1816 12.432 13.6557C12.714 13.1278 13.1279 12.7139 13.6559 12.4319C14.1819 12.15 14.7059 12 16.1478 12Z" fill="#DCE5FA"/>
<path fill-rule="evenodd" clip-rule="evenodd" d="M47.8521 52.002H30.2669C28.825 52.002 28.301 51.8521 27.7731 51.5701C27.2522 51.2939 26.8265 50.8675 26.5511 50.3463C26.2691 49.8204 26.1191 49.2965 26.1191 47.8548V30.2722C26.1191 28.8285 26.2691 28.3066 26.5511 27.7787C26.8311 27.2528 27.2471 26.8389 27.7731 26.5569C28.301 26.275 28.825 26.125 30.2669 26.125H47.8521C49.294 26.125 49.818 26.275 50.344 26.5569C50.872 26.8389 51.2859 27.2528 51.5679 27.7787C51.8479 28.3066 51.9999 28.8285 51.9999 30.2722V47.8548C51.9999 49.2965 51.8499 49.8204 51.5679 50.3463C51.2859 50.8742 50.872 51.2882 50.344 51.5701C49.818 51.8521 49.294 52.002 47.8521 52.002Z" fill="#5F83C6"/>
<path d="M23.1049 21.6865L23.1249 17.6813C23.127 17.387 23.2448 17.1055 23.4529 16.8974C23.6609 16.6894 23.9426 16.5716 24.2368 16.5695C24.3817 16.5681 24.5255 16.5957 24.6596 16.6505C24.7938 16.7052 24.9157 16.7861 25.0183 16.8885C25.1208 16.9909 25.202 17.1126 25.257 17.2467C25.312 17.3807 25.3398 17.5244 25.3388 17.6693L25.3068 24.312C25.3047 24.6066 25.1866 24.8884 24.9781 25.0965C24.7696 25.3046 24.4874 25.4222 24.1928 25.4238L17.5511 25.4578C17.4063 25.4586 17.2627 25.4306 17.1288 25.3755C16.9949 25.3203 16.8732 25.2392 16.7709 25.1367C16.6685 25.0342 16.5876 24.9124 16.5327 24.7784C16.4778 24.6444 16.4501 24.5008 16.4512 24.356C16.4533 24.0621 16.5708 23.7808 16.7785 23.5728C16.9861 23.3648 17.2672 23.2468 17.5611 23.2442L21.8089 23.2222L15.6232 17.0394C15.438 16.851 15.3349 16.597 15.3364 16.3329C15.3379 16.0687 15.4439 15.8159 15.6312 15.6297C15.8178 15.4426 16.0708 15.3371 16.335 15.3359C16.5991 15.3348 16.853 15.4383 17.0412 15.6237L23.1049 21.6865Z" fill="#295795"/>
<path d="M43.6644 32.8281H46.1702L43.6824 46.1576H41.0665L41.0325 45.9736L39.5625 37.9311L38.0226 46.1576H35.3127L32.8389 32.8281H35.5127L35.5427 33.0181L36.7867 41.3525L38.4326 32.8281H40.9725L41.0045 33.0141L42.4304 41.2905L43.6644 32.8281Z" fill="white"/>
</svg>
