<svg width="64" height="64" viewBox="0 0 64 64" fill="none" xmlns="http://www.w3.org/2000/svg">
<rect width="64" height="64" rx="12" fill="#3C66C9" fill-opacity="0.2"/>
<path fill-rule="evenodd" clip-rule="evenodd" d="M37.8588 24.5246H30.2189C28.2373 24.5246 27.519 24.731 26.795 25.1182C26.0799 25.4982 25.4953 26.084 25.1166 26.7998C24.7294 27.5214 24.523 28.2397 24.523 30.2213V37.8612H16.1439C14.704 37.8612 14.1816 37.7116 13.6536 37.4292C13.134 37.1525 12.7087 36.7272 12.432 36.2076C12.1504 35.678 12 35.1556 12 33.7157V16.1439C12 14.704 12.1504 14.1816 12.432 13.6536C12.7083 13.1338 13.1333 12.7082 13.6528 12.4312C14.1816 12.1504 14.704 12 16.1439 12H33.7157C35.1556 12 35.678 12.1504 36.206 12.432C36.7256 12.7087 37.1509 13.134 37.4276 13.6536C37.7092 14.1816 37.8596 14.704 37.8596 16.1439L37.8588 24.5246Z" fill="#DCE5FA"/>
<path d="M23.582 18.0183C23.582 17.6367 23.266 17.3279 22.8756 17.3279C22.4852 17.3279 22.1692 17.6375 22.1692 18.0183V21.0934L18.0533 17.0551C17.9202 16.9246 17.7413 16.8516 17.5549 16.8516C17.3685 16.8516 17.1896 16.9246 17.0565 17.0551C16.9221 17.1831 16.8501 17.3591 16.8501 17.5431C16.8501 17.7271 16.9301 17.9055 17.0565 18.0335L21.1724 22.0734H18.0405C17.6501 22.0734 17.3341 22.383 17.3341 22.767C17.3341 23.151 17.6501 23.4574 18.0405 23.4574H22.878C22.9713 23.4586 23.0639 23.4407 23.15 23.4046C23.2355 23.3706 23.3134 23.3198 23.3789 23.2553C23.4444 23.1907 23.4964 23.1136 23.5316 23.0286C23.569 22.9463 23.5871 22.8565 23.5844 22.7662L23.5876 18.0191L23.582 18.0183Z" fill="#3C66C9"/>
<path fill-rule="evenodd" clip-rule="evenodd" d="M30.2846 26.1414H47.8563C49.2963 26.1414 49.8187 26.2918 50.3466 26.5758C50.8671 26.8513 51.2928 27.2769 51.5682 27.7974C51.8498 28.3222 52.0002 28.8454 52.0002 30.2854V47.8563C52.0002 49.2963 51.8506 49.8187 51.5682 50.3466C51.2916 50.8663 50.8663 51.2916 50.3466 51.5682C49.8187 51.8498 49.2971 52.0002 47.8563 52.0002H30.2846C28.8446 52.0002 28.3222 51.8506 27.7942 51.5682C27.2746 51.2916 26.8493 50.8663 26.5726 50.3466C26.291 49.8187 26.1406 49.2971 26.1406 47.8563V30.2846C26.1406 28.8446 26.291 28.3222 26.5726 27.7942C26.851 27.2758 27.2766 26.8502 27.7942 26.5726C28.3222 26.291 28.8446 26.1406 30.2846 26.1406V26.1414Z" fill="#3C66C9"/>
<path fill-rule="evenodd" clip-rule="evenodd" d="M45.2009 32.7969C46.0825 32.7969 46.8009 33.5153 46.8009 34.3968C46.8009 35.2784 46.0825 35.9968 45.2009 35.9968C44.3193 35.9968 43.6009 35.2784 43.6009 34.3968C43.6009 33.5153 44.3193 32.7969 45.2009 32.7969ZM36.481 43.1967H31.4059C31.3259 43.1967 31.2683 43.1591 31.2339 43.0967C31.1995 43.0343 31.1995 42.9623 31.2371 42.9031L36.4962 34.0873C36.5154 34.0599 36.5409 34.0375 36.5706 34.022C36.6002 34.0066 36.6332 33.9985 36.6666 33.9985C36.7001 33.9985 36.733 34.0066 36.7627 34.022C36.7923 34.0375 36.8178 34.0599 36.837 34.0873L39.9026 39.2248L41.9585 37.1248C41.9767 37.1058 41.9986 37.0908 42.0228 37.0806C42.047 37.0704 42.0731 37.0653 42.0993 37.0656H42.1057C42.1617 37.0656 42.2153 37.0896 42.2497 37.1344L47.1297 42.8383C47.1857 42.8727 47.2177 42.9343 47.2177 43.0007C47.2168 43.0524 47.1957 43.1016 47.1589 43.1378C47.1221 43.174 47.0725 43.1943 47.0209 43.1943H36.481V43.1911V43.1967Z" fill="white"/>
</svg>
