<svg width="64" height="64" viewBox="0 0 64 64" fill="none" xmlns="http://www.w3.org/2000/svg">
<rect width="64" height="64" rx="12" fill="#A833A8" fill-opacity="0.16"/>
<g clip-path="url(#clip0_635_2549)">
<path fill-rule="evenodd" clip-rule="evenodd" d="M26.1409 39.475H33.7809C35.7617 39.475 36.4809 39.2686 37.2049 38.8814C37.9203 38.5021 38.5049 37.9161 38.8825 37.1998C39.2785 36.4782 39.4769 35.7598 39.4769 33.7782V26.1406H47.8561C49.2961 26.1406 49.8185 26.2902 50.3473 26.5726C50.8721 26.8566 51.2873 27.2686 51.5689 27.7942C51.8505 28.3198 52.0009 28.8422 52.0009 30.2846V47.8558C52.0009 49.2958 51.8513 49.8182 51.5689 50.347C51.2889 50.8718 50.8729 51.287 50.3481 51.5686C49.8233 51.8502 49.2961 51.9998 47.8561 51.9998H30.2841C28.8441 51.9998 28.3217 51.8502 27.7937 51.5678C27.2657 51.2854 26.8561 50.8718 26.5721 50.347C26.2881 49.8222 26.1401 49.2974 26.1401 47.8566L26.1409 39.475Z" fill="#A833A8"/>
<path d="M47.1521 41.7134C47.1521 41.3318 46.8377 41.0222 46.4481 41.0222C46.0585 41.0222 45.7409 41.3318 45.7409 41.7134V44.7878L41.6241 40.751C41.4905 40.6202 41.311 40.5469 41.1241 40.5469C40.9371 40.5469 40.7576 40.6202 40.6241 40.751C40.5593 40.8147 40.5077 40.8907 40.4724 40.9744C40.4371 41.0582 40.4188 41.1481 40.4185 41.239C40.4186 41.3304 40.4369 41.4208 40.4723 41.505C40.5078 41.5892 40.5596 41.6655 40.6249 41.7294L44.7409 45.7694H41.6097C41.2177 45.7694 40.9041 46.079 40.9041 46.463C40.9041 46.847 41.2185 47.1566 41.6097 47.1566H46.4505C46.5426 47.1553 46.6335 47.1362 46.7185 47.1006C46.8898 47.0323 47.0271 46.8988 47.1001 46.7294C47.1374 46.646 47.1552 46.5552 47.1521 46.4638L47.1561 41.7166L47.1521 41.7134Z" fill="white"/>
<path fill-rule="evenodd" clip-rule="evenodd" d="M33.716 37.8592H16.144C14.704 37.8592 14.1816 37.7096 13.6536 37.4248C13.1256 37.14 12.712 36.7312 12.432 36.2032C12.152 35.6752 12 35.16 12 33.716V16.144C12 14.704 12.1504 14.1816 12.432 13.6536C12.7083 13.1338 13.1334 12.7082 13.6528 12.4312C14.1816 12.1504 14.704 12 16.144 12H33.716C35.156 12 35.6784 12.1504 36.2064 12.432C36.7344 12.7136 37.144 13.128 37.428 13.6536C37.712 14.1792 37.86 14.704 37.86 16.144V33.716C37.86 35.156 37.7104 35.6784 37.428 36.2064C37.1456 36.7344 36.732 37.1472 36.2064 37.428C35.6808 37.7088 35.1568 37.8592 33.716 37.8592Z" fill="#E1B3E7"/>
<path fill-rule="evenodd" clip-rule="evenodd" d="M27.4936 25.7279C26.6243 26.4463 25.4616 26.8058 24.0056 26.8063H22.712V30.8031H20V19.2031H24.2504C27.2824 19.2031 28.7989 20.4351 28.8 22.8991C28.8 24.0615 28.3656 25.0095 27.4936 25.7279ZM23.856 21.2031H22.8V24.8031H23.856C25.2848 24.8031 25.9995 24.197 26 22.9847C26 21.7975 25.288 21.2031 23.856 21.2031Z" fill="#A833A8"/>
</g>
<defs>
<clipPath id="clip0_635_2549">
<rect width="40" height="40" fill="white" transform="translate(12 12)"/>
</clipPath>
</defs>
</svg>
