<svg width="64" height="64" viewBox="0 0 64 64" fill="none" xmlns="http://www.w3.org/2000/svg">
<rect width="64" height="64" rx="12" fill="#54C95A" fill-opacity="0.16"/>
<path fill-rule="evenodd" clip-rule="evenodd" d="M18.41 12H45.59C47.818 12 48.628 12.232 49.442 12.668C50.256 13.104 50.896 13.744 51.332 14.558C51.768 15.372 52 16.18 52 18.41V45.59C52 47.82 51.768 48.628 51.332 49.442C50.9049 50.2467 50.2466 50.9049 49.442 51.332C48.628 51.768 47.82 52 45.59 52H18.41C16.18 52 15.372 51.768 14.558 51.332C13.7534 50.9049 13.0951 50.2467 12.668 49.442C12.232 48.628 12 47.82 12 45.59V18.41C12 16.18 12.232 15.372 12.668 14.558C13.104 13.744 13.744 13.104 14.558 12.668C15.372 12.232 16.18 12 18.41 12Z" fill="#54C95A"/>
<path d="M31.5358 19.1015C31.6818 19.0346 31.84 19 32 19C32.16 19 32.3182 19.0346 32.4642 19.1015L42.3184 23.5838C42.5202 23.6767 42.6917 23.827 42.8126 24.0167C42.9334 24.2065 42.9985 24.4277 43 24.6542V31.3797C43 38.1553 38.4206 44.4297 32.2723 45.9673C32.0933 46.0109 31.9067 46.0109 31.7277 45.9673C25.5775 44.4297 21 38.1553 21 31.3797V24.6542C21 24.1912 21.2664 23.7722 21.6797 23.5838L31.5358 19.1015ZM23.2897 25.418V31.3797C23.2897 36.9946 27.0328 42.2227 32 43.6159C36.9653 42.2227 40.7083 36.9946 40.7083 31.3797V25.418L32 21.4549L23.2897 25.418Z" fill="white"/>
<path fill-rule="evenodd" clip-rule="evenodd" d="M33.6176 36H29.3824L30.03 31.6276C29.7135 31.4469 29.4544 31.2049 29.275 30.9223C29.0955 30.6397 29.0012 30.3251 29 30.0054C29 28.8971 30.1192 28 31.5012 28C32.8808 28 34 28.8971 34 30.0054C34 30.6719 33.5964 31.2621 32.9723 31.6276L33.6176 36Z" fill="white"/>
</svg>
