<svg width="64" height="64" viewBox="0 0 64 64" fill="none" xmlns="http://www.w3.org/2000/svg">
<rect width="64" height="64" rx="12" fill="#DAC02B" fill-opacity="0.16"/>
<path d="M18.41 12H45.59C47.8192 12 48.6275 12.2325 49.4425 12.6683C50.2478 13.0945 50.9063 13.753 51.3325 14.5583C51.7683 15.3733 52 16.1817 52 18.41V45.5908C52 47.8192 51.7675 48.6275 51.3325 49.4425C50.9063 50.2478 50.2478 50.9063 49.4425 51.3325C48.6275 51.7683 47.8192 52 45.59 52H18.41C16.1808 52 15.3725 51.7683 14.5575 51.3333C13.7521 50.907 13.0935 50.2481 12.6675 49.4425C12.2317 48.6275 12 47.8192 12 45.5908V18.41C12 16.1817 12.2317 15.3733 12.6675 14.5583C13.0939 13.7529 13.7527 13.0944 14.5583 12.6683C15.3733 12.2325 16.1808 12 18.41 12Z" fill="#DAC02B"/>
<path fill-rule="evenodd" clip-rule="evenodd" d="M21.5825 20.3281C21.5825 19.9966 21.7142 19.6787 21.9486 19.4442C22.1831 19.2098 22.501 19.0781 22.8325 19.0781H41.1659C41.4974 19.0781 41.8153 19.2098 42.0497 19.4442C42.2842 19.6787 42.4159 19.9966 42.4159 20.3281C42.4159 20.6596 42.2842 20.9776 42.0497 21.212C41.8153 21.4464 41.4974 21.5781 41.1659 21.5781H22.8325C22.501 21.5781 22.1831 21.4464 21.9486 21.212C21.7142 20.9776 21.5825 20.6596 21.5825 20.3281Z" fill="#E8EDF3"/>
<path d="M21.9995 26.3229C21.9995 25.8809 22.1751 25.457 22.4877 25.1444C22.8002 24.8318 23.2242 24.6563 23.6662 24.6562H40.3328C40.7749 24.6562 41.1988 24.8318 41.5114 25.1444C41.8239 25.457 41.9995 25.8809 41.9995 26.3229V32.6687C41.9995 33.1108 41.8239 33.5347 41.5114 33.8473C41.1988 34.1598 40.7749 34.3354 40.3328 34.3354H23.6662C23.2242 34.3354 22.8002 34.1598 22.4877 33.8473C22.1751 33.5347 21.9995 33.1108 21.9995 32.6687V26.3229Z" fill="white"/>
<path fill-rule="evenodd" clip-rule="evenodd" d="M29.7366 26.9626C29.8882 26.8114 30.0934 26.7266 30.3075 26.7266C30.5215 26.7266 30.7268 26.8114 30.8783 26.9626L34.9158 30.9959C34.9908 31.0708 35.0503 31.1597 35.0909 31.2575C35.1315 31.3554 35.1524 31.4604 35.1524 31.5663C35.1524 31.6723 35.1315 31.7772 35.0909 31.8751C35.0503 31.973 34.9908 32.0619 34.9158 32.1367C34.7643 32.2879 34.559 32.3728 34.345 32.3728C34.1309 32.3728 33.9257 32.2879 33.7741 32.1367L29.7366 28.1034C29.6616 28.0286 29.6021 27.9396 29.5615 27.8418C29.5209 27.7439 29.5 27.639 29.5 27.533C29.5 27.427 29.5209 27.3221 29.5615 27.2242C29.6021 27.1263 29.6616 27.0374 29.7366 26.9626Z" fill="#DAC02B"/>
<path fill-rule="evenodd" clip-rule="evenodd" d="M34.9166 26.963C34.7651 26.8116 34.5596 26.7266 34.3454 26.7266C34.1312 26.7266 33.9257 26.8116 33.7741 26.963L29.7366 30.9963C29.6616 31.0712 29.6021 31.1601 29.5615 31.258C29.5209 31.3558 29.5 31.4608 29.5 31.5667C29.5 31.6727 29.5209 31.7776 29.5615 31.8755C29.6021 31.9734 29.6616 32.0623 29.7366 32.1372C29.8882 32.2883 30.0934 32.3732 30.3075 32.3732C30.5215 32.3732 30.7268 32.2883 30.8783 32.1372L34.9158 28.1038C34.9908 28.029 35.0503 27.9401 35.0909 27.8422C35.1315 27.7443 35.1524 27.6394 35.1524 27.5334C35.1524 27.4274 35.1315 27.3225 35.0909 27.2246C35.0503 27.1268 34.9916 27.0378 34.9166 26.963Z" fill="#DAC02B"/>
<path fill-rule="evenodd" clip-rule="evenodd" d="M21.5825 38.6641C21.5825 38.3325 21.7142 38.0146 21.9486 37.7802C22.1831 37.5458 22.501 37.4141 22.8325 37.4141H40.3325C40.664 37.4141 40.982 37.5458 41.2164 37.7802C41.4508 38.0146 41.5825 38.3325 41.5825 38.6641C41.5825 38.9956 41.4508 39.3135 41.2164 39.5479C40.982 39.7824 40.664 39.9141 40.3325 39.9141H22.8325C22.501 39.9141 22.1831 39.7824 21.9486 39.5479C21.7142 39.3135 21.5825 38.9956 21.5825 38.6641ZM21.5825 43.6641C21.5825 43.3325 21.7142 43.0146 21.9486 42.7802C22.1831 42.5458 22.501 42.4141 22.8325 42.4141H31.9992C32.3307 42.4141 32.6486 42.5458 32.8831 42.7802C33.1175 43.0146 33.2492 43.3325 33.2492 43.6641C33.2492 43.9956 33.1175 44.3135 32.8831 44.5479C32.6486 44.7824 32.3307 44.9141 31.9992 44.9141H22.8325C22.501 44.9141 22.1831 44.7824 21.9486 44.5479C21.7142 44.3135 21.5825 43.9956 21.5825 43.6641Z" fill="#E8EDF3"/>
</svg>
