<svg width="64" height="64" viewBox="0 0 64 64" fill="none" xmlns="http://www.w3.org/2000/svg">
<path fill-rule="evenodd" clip-rule="evenodd" d="M18.41 12H45.59C47.818 12 48.628 12.232 49.442 12.668C50.256 13.104 50.896 13.744 51.332 14.558C51.768 15.372 52 16.18 52 18.41V45.59C52 47.82 51.768 48.628 51.332 49.442C50.9049 50.2467 50.2466 50.9049 49.442 51.332C48.628 51.768 47.82 52 45.59 52H18.41C16.18 52 15.372 51.768 14.558 51.332C13.7534 50.9049 13.0951 50.2467 12.668 49.442C12.232 48.628 12 47.82 12 45.59V18.41C12 16.18 12.232 15.372 12.668 14.558C13.104 13.744 13.744 13.104 14.558 12.668C15.372 12.232 16.18 12 18.41 12Z" fill="#FDC04B"/>
<path d="M35.5524 40.9088C35.7923 40.8174 36.058 40.8214 36.2949 40.9202C36.5318 41.0189 36.7218 41.2048 36.8257 41.4395C36.9296 41.6742 36.9395 41.9398 36.8533 42.1816C36.7671 42.4233 36.5914 42.6227 36.3624 42.7388C35.4224 43.1548 34.4231 43.4375 33.3644 43.5868C33.1025 43.6229 32.8368 43.5538 32.6257 43.3946C32.4145 43.2354 32.275 42.999 32.2377 42.7372C32.2005 42.4754 32.2684 42.2094 32.4267 41.9976C32.585 41.7857 32.8208 41.6452 33.0824 41.6068C33.9611 41.4815 34.7844 41.2488 35.5524 40.9088ZM30.6924 22.6008C30.9545 22.5696 31.2182 22.6432 31.4262 22.8056C31.6342 22.968 31.7695 23.206 31.8028 23.4678C31.836 23.7296 31.7645 23.9938 31.6037 24.2031C31.4429 24.4123 31.2059 24.5495 30.9444 24.5848C26.6644 25.1348 23.3984 28.7548 23.3984 33.0948C23.4022 34.8039 23.9163 36.4729 24.8748 37.8879C25.8334 39.3029 27.1927 40.3994 28.7784 41.0368C28.9026 41.0845 29.016 41.1565 29.112 41.2485C29.208 41.3406 29.2846 41.4508 29.3375 41.5729C29.3903 41.6949 29.4183 41.8263 29.4198 41.9593C29.4213 42.0923 29.3962 42.2242 29.346 42.3474C29.2959 42.4705 29.2217 42.5825 29.1277 42.6766C29.0338 42.7708 28.922 42.8452 28.7989 42.8956C28.6759 42.9461 28.544 42.9715 28.411 42.9703C28.278 42.9691 28.1466 42.9414 28.0244 42.8888C26.0704 42.1015 24.3959 40.7488 23.2155 39.0039C22.035 37.259 21.4023 35.2015 21.3984 33.0948C21.3984 27.7368 25.4224 23.2768 30.6924 22.6008ZM40.1024 36.0968C40.145 35.9685 40.213 35.8502 40.3026 35.749C40.3921 35.6477 40.5012 35.5656 40.6233 35.5078C40.7454 35.4499 40.878 35.4173 41.0131 35.4121C41.1481 35.4069 41.2828 35.4291 41.409 35.4774C41.5353 35.5257 41.6504 35.5991 41.7474 35.6931C41.8445 35.7872 41.9215 35.8999 41.9738 36.0245C42.0261 36.1492 42.0526 36.2831 42.0516 36.4182C42.0507 36.5534 42.0224 36.6869 41.9684 36.8108C41.5756 37.8047 41.0472 38.7396 40.3984 39.5888C40.2393 39.801 40.0024 39.9413 39.7399 39.9788C39.4773 40.0163 39.2106 39.948 38.9984 39.7888C38.7863 39.6297 38.646 39.3928 38.6085 39.1303C38.571 38.8677 38.6393 38.601 38.7984 38.3888C39.3744 37.6248 39.8091 36.8608 40.1024 36.0968ZM40.3084 28.1808C40.5498 28.0718 40.8246 28.0631 41.0724 28.1564C41.3203 28.2498 41.5209 28.4376 41.6304 28.6788C42.0651 29.6414 42.3598 30.6655 42.5144 31.7508C42.5521 32.0134 42.4839 32.2801 42.3249 32.4924C42.1659 32.7047 41.929 32.8452 41.6664 32.8828C41.4039 32.9205 41.1371 32.8523 40.9248 32.6932C40.7125 32.5342 40.5721 32.2974 40.5344 32.0348C40.4151 31.1603 40.1706 30.3076 39.8084 29.5028C39.6996 29.2612 39.6911 28.9862 39.7849 28.7383C39.8786 28.4905 40.0669 28.2899 40.3084 28.1808Z" fill="white"/>
<path fill-rule="evenodd" clip-rule="evenodd" d="M31.4229 28.7969C31.2575 28.7959 31.0992 28.7299 30.9821 28.6131C30.865 28.4964 30.7984 28.3383 30.7969 28.1729V19.4229C30.7969 19.0809 31.0809 18.7969 31.4229 18.7969C31.505 18.7961 31.5865 18.8123 31.6622 18.8443C31.7379 18.8763 31.8062 18.9235 31.8629 18.9829L36.2369 23.3569C36.2951 23.4145 36.3413 23.483 36.3729 23.5585C36.4045 23.634 36.4208 23.715 36.4209 23.7969C36.4208 23.8788 36.4045 23.9598 36.3729 24.0353C36.3413 24.1108 36.2951 24.1793 36.2369 24.2369L31.8609 28.6109C31.8042 28.6704 31.7359 28.7176 31.6602 28.7496C31.5845 28.7816 31.503 28.7977 31.4209 28.7969" fill="white"/>
<rect width="64" height="64" rx="12" fill="#FDC04B" fill-opacity="0.16"/>
</svg>
