<svg width="64" height="64" viewBox="0 0 64 64" fill="none" xmlns="http://www.w3.org/2000/svg">
<rect width="64" height="64" rx="12" fill="#8B8282" fill-opacity="0.16"/>
<path d="M18.4 12H45.6C47.826 12 48.66 12.208 49.426 12.696C50.2593 13.1147 50.886 13.7406 51.306 14.574C51.722 15.408 52 16.174 52 18.4V45.6C52 47.826 51.792 48.66 51.304 49.426C50.9037 50.2431 50.243 50.9037 49.426 51.304C48.592 51.722 47.826 52 45.6 52H18.4C16.174 52 15.34 51.792 14.574 51.304C13.808 50.818 13.114 50.26 12.694 49.426C12.278 48.592 12 47.826 12 45.6V18.4C12 16.174 12.208 15.34 12.696 14.574C13.0963 13.7569 13.757 13.0963 14.574 12.696C15.34 12.208 16.174 12 18.4 12Z" fill="#8B8282"/>
<path d="M33.018 22C33.718 22 34.392 22.3 34.888 22.832L38.224 26.458C38.72 26.992 39 27.7139 39 28.4659V39.162C39 40.73 37.814 42 36.354 42H26.646C25.186 42 24 40.73 24 39.162V24.838C24 23.27 25.184 22 26.646 22H33.018ZM26.646 23.42C25.916 23.42 25.326 24.054 25.326 24.838V39.162C25.326 39.946 25.916 40.58 26.646 40.58H36.354C37.084 40.58 37.674 39.946 37.674 39.162V28.436H35C34.4696 28.436 33.9609 28.2253 33.5858 27.8502C33.2107 27.4751 33 26.9665 33 26.436V23.42H26.646Z" fill="#FBE8E2"/>
<mask id="mask0_635_2705" style="mask-type:luminance" maskUnits="userSpaceOnUse" x="24" y="22" width="16" height="20">
<path d="M33.518 22C34.218 22 34.892 22.3 35.388 22.832L38.724 26.458C39.22 26.992 39.5 27.7139 39.5 28.4659V39.162C39.5 40.73 38.314 42 36.854 42H27.146C25.686 42 24.5 40.73 24.5 39.162V24.838C24.5 23.27 25.684 22 27.146 22H33.518ZM27.146 23.42C26.416 23.42 25.826 24.054 25.826 24.838V39.162C25.826 39.946 26.416 40.58 27.146 40.58H36.854C37.584 40.58 38.174 39.946 38.174 39.162V28.436H35.5C34.9696 28.436 34.4609 28.2253 34.0858 27.8502C33.7107 27.4751 33.5 26.9665 33.5 26.436V23.42H27.146Z" fill="white"/>
</mask>
<g mask="url(#mask0_635_2705)">
<path d="M35.388 22.832L38.332 20.124L38.314 20.104L35.388 22.832ZM38.724 26.458L35.78 29.166L35.8 29.186L38.724 26.458ZM38.174 28.436L42.174 28.356L42.094 24.436H38.174V28.436ZM33.5 23.42H37.5V19.42H33.5V23.42ZM33.518 22V26C33.3216 26.0024 33.1268 25.9646 32.9455 25.8889C32.7643 25.8132 32.6004 25.7014 32.464 25.5601L35.388 22.832L38.314 20.104C37.7019 19.4427 36.9602 18.9146 36.1351 18.5526C35.3099 18.1906 34.4191 18.0025 33.518 18V22ZM35.388 22.832L32.444 25.54L35.78 29.166L38.724 26.458L41.668 23.752L38.332 20.124L35.388 22.832ZM38.724 26.458L35.8 29.186C35.6121 28.9929 35.5049 28.7353 35.5 28.4659H43.5C43.5 26.7399 42.862 25.0321 41.65 23.7321L38.724 26.458ZM39.5 28.4659H35.5V39.162L43.5 39.1639V28.4659H39.5ZM39.5 39.162H35.5C35.5 38.93 35.59 38.6659 35.8 38.4399C35.9362 38.2988 36.0997 38.1871 36.2806 38.1115C36.4615 38.0358 36.6559 37.9979 36.852 38L36.854 42V46C40.782 46 43.5 42.6699 43.5 39.1639L39.5 39.162ZM36.854 42L36.852 38H27.146V46H36.854V42ZM27.146 42V38C27.616 38 27.986 38.2099 28.2 38.4399C28.41 38.6659 28.5 38.93 28.5 39.162H24.5H20.5C20.5 42.668 23.218 46 27.146 46V42ZM24.5 39.162H28.5V24.838L20.5 24.8361V39.162H24.5ZM24.5 24.838H28.5C28.4937 25.1077 28.3867 25.3653 28.2 25.5601C28.0638 25.7012 27.9003 25.8129 27.7194 25.8885C27.5385 25.9642 27.3441 26.0021 27.148 26V22L27.146 18C23.218 18 20.5 21.3301 20.5 24.8361L24.5 24.838ZM27.146 22V26H33.518V18H27.146V22ZM27.146 23.42V19.42C23.946 19.422 21.826 22.1141 21.826 24.8361L25.826 24.838L29.826 24.84C29.824 25.996 28.886 27.42 27.148 27.42L27.146 23.42ZM25.826 24.838L21.826 24.8361V39.162H29.826V24.84L25.826 24.838ZM25.826 39.162H21.826C21.826 41.884 23.946 44.578 27.146 44.58V40.58L27.148 36.58C28.884 36.58 29.824 38.004 29.824 39.16L25.826 39.162ZM27.146 40.58V44.58H36.854V36.58H27.146V40.58ZM36.854 40.58V44.58C40.054 44.578 42.174 41.8859 42.174 39.1639L38.174 39.162L34.174 39.16C34.176 38.004 35.116 36.58 36.854 36.58V40.58ZM38.174 39.162L42.174 39.1639V28.4659H34.174V39.16L38.174 39.162ZM38.174 28.4659H42.174C42.1749 28.3445 42.1702 28.2231 42.16 28.1021V28.106L42.164 28.1479C42.166 28.1859 42.172 28.262 42.174 28.356L38.174 28.436L34.174 28.516C34.174 28.5667 34.176 28.6106 34.18 28.6479C34.18 28.6839 34.182 28.714 34.186 28.738L34.19 28.788V28.802V28.776C34.1773 28.6732 34.1706 28.5695 34.174 28.4659H38.174ZM38.174 28.436V24.436H35.5V32.436H38.174V28.436ZM35.5 28.436V24.436C36.608 24.436 37.5 25.332 37.5 26.432L33.5 26.436H29.5C29.5005 28.027 30.1329 29.5545 31.2581 30.6793C32.3832 31.8041 33.909 32.436 35.5 32.436V28.436ZM33.5 26.436H37.5V23.42H29.5V26.436H33.5ZM33.5 23.42V19.42H27.146V27.42H33.5V23.42Z" fill="#FBE8E2"/>
</g>
<path fill-rule="evenodd" clip-rule="evenodd" d="M43.3042 46H40.3584C40.0908 46 39.8342 45.8937 39.645 45.7045C39.4558 45.5152 39.3495 45.2586 39.3495 44.991C39.3495 44.7234 39.4558 44.4668 39.645 44.2776C39.8342 44.0884 40.0908 43.9821 40.3584 43.9821H43.3062C43.4836 43.9761 43.652 43.9028 43.7775 43.7773C43.903 43.6518 43.9762 43.4834 43.9821 43.306V40.358C43.9821 39.8 44.4321 39.35 44.9921 39.35C45.552 39.35 46 39.8 46 40.358V43.306C46 44.778 44.7781 46 43.3042 46ZM20.6938 18H23.6416C23.9092 18 24.1658 18.1063 24.355 18.2955C24.5442 18.4848 24.6505 18.7414 24.6505 19.009C24.6505 19.2766 24.5442 19.5332 24.355 19.7224C24.1658 19.9116 23.9092 20.0179 23.6416 20.0179H20.6938C20.5164 20.0239 20.348 20.0972 20.2225 20.2227C20.097 20.3482 20.0238 20.5166 20.0179 20.694V23.642C20.0179 23.9096 19.9116 24.1662 19.7223 24.3555C19.5331 24.5447 19.2765 24.651 19.0089 24.651C18.7413 24.651 18.4847 24.5447 18.2955 24.3555C18.1063 24.1662 18 23.9096 18 23.642V20.694C18 19.222 19.2199 18 20.6938 18ZM18 43.306V40.358C18 40.0904 18.1063 39.8338 18.2955 39.6445C18.4847 39.4553 18.7413 39.349 19.0089 39.349C19.2765 39.349 19.5331 39.4553 19.7223 39.6445C19.9116 39.8338 20.0179 40.0904 20.0179 40.358V43.306C20.0179 43.66 20.3378 43.9821 20.6938 43.9821H23.6416C23.9092 43.9821 24.1658 44.0884 24.355 44.2776C24.5442 44.4668 24.6505 44.7234 24.6505 44.991C24.6505 45.2586 24.5442 45.5152 24.355 45.7045C24.1658 45.8937 23.9092 46 23.6416 46H20.6938C19.981 45.9948 19.2988 45.7093 18.7948 45.2052C18.2907 44.7011 18.0052 44.0189 18 43.306ZM45.998 20.694V23.642C45.998 23.9096 45.8917 24.1662 45.7025 24.3555C45.5133 24.5447 45.2567 24.651 44.9891 24.651C44.7215 24.651 44.4649 24.5447 44.2757 24.3555C44.0864 24.1662 43.9801 23.9096 43.9801 23.642V20.694C43.9742 20.5166 43.901 20.3482 43.7755 20.2227C43.65 20.0972 43.4816 20.0239 43.3042 20.0179H40.3584C40.0908 20.0179 39.8342 19.9116 39.645 19.7224C39.4558 19.5332 39.3495 19.2766 39.3495 19.009C39.3495 18.7414 39.4558 18.4848 39.645 18.2955C39.8342 18.1063 40.0908 18 40.3584 18H43.3062C44.7781 18 45.998 19.222 45.998 20.694Z" fill="white"/>
</svg>
