<svg width="64" height="64" viewBox="0 0 64 64" fill="none" xmlns="http://www.w3.org/2000/svg">
<rect width="64" height="64" rx="12" fill="#25CC2C" fill-opacity="0.16"/>
<path d="M18.41 12H45.59C47.818 12 48.628 12.232 49.442 12.668C50.256 13.104 50.896 13.744 51.332 14.558C51.768 15.372 52 16.18 52 18.41V45.59C52 47.82 51.768 48.628 51.332 49.442C50.9049 50.2467 50.2466 50.905 49.442 51.332C48.628 51.768 47.82 52 45.59 52H18.41C16.18 52 15.372 51.768 14.558 51.332C13.7534 50.905 13.0951 50.2467 12.668 49.442C12.232 48.628 12 47.82 12 45.59V18.41C12 16.18 12.232 15.372 12.668 14.558C13.104 13.744 13.744 13.104 14.558 12.668C15.372 12.232 16.18 12 18.41 12Z" fill="#AB6993"/>
<path d="M18.41 12H45.59C47.818 12 48.628 12.232 49.442 12.668C50.256 13.104 50.896 13.744 51.332 14.558C51.768 15.372 52 16.18 52 18.41V45.59C52 47.82 51.768 48.628 51.332 49.442C50.9049 50.2467 50.2466 50.905 49.442 51.332C48.628 51.768 47.82 52 45.59 52H18.41C16.18 52 15.372 51.768 14.558 51.332C13.7534 50.905 13.0951 50.2467 12.668 49.442C12.232 48.628 12 47.82 12 45.59V18.41C12 16.18 12.232 15.372 12.668 14.558C13.104 13.744 13.744 13.104 14.558 12.668C15.372 12.232 16.18 12 18.41 12Z" fill="#25CC2C"/>
<path d="M25.8436 30.2715L25.5156 41.9816C25.5153 42.0205 25.5278 42.0585 25.5511 42.0896C25.5745 42.1208 25.6074 42.1434 25.6449 42.1541C25.6823 42.1648 25.7222 42.1629 25.7585 42.1487C25.7948 42.1345 25.8254 42.1089 25.8456 42.0756L29.5876 35.5916C29.2081 35.2328 28.9735 34.7471 28.9283 34.2267C28.8831 33.7064 29.0305 33.1875 29.3426 32.7686C29.6547 32.3497 30.1096 32.06 30.6211 31.9544C31.1327 31.8488 31.6652 31.9346 32.1176 32.1956C32.573 32.455 32.9168 32.8733 33.0831 33.3703C33.2495 33.8673 33.2267 34.4081 33.0193 34.8894C32.8118 35.3707 32.4341 35.7587 31.9586 35.979C31.483 36.1993 30.9429 36.2365 30.4416 36.0835L26.7096 42.5475C26.6906 42.5817 26.6833 42.6212 26.6889 42.6599C26.6945 42.6987 26.7127 42.7344 26.7407 42.7618C26.7687 42.7891 26.805 42.8064 26.8438 42.8111C26.8827 42.8157 26.922 42.8075 26.9556 42.7876L36.9196 36.6656C37.0588 36.5801 37.1764 36.4635 37.2631 36.3251C37.3498 36.1867 37.4034 36.0301 37.4196 35.8676L38.1476 28.6615C38.1687 28.4577 38.1303 28.2521 38.0369 28.0696C37.9436 27.8872 37.7993 27.7357 37.6216 27.6336L33.3056 25.1415C33.1281 25.0388 32.9246 24.9899 32.7197 25.0005C32.5149 25.0112 32.3176 25.081 32.1516 25.2016L26.2836 29.4396C26.1512 29.535 26.0425 29.6598 25.9662 29.8041C25.8899 29.9484 25.8479 30.1083 25.8436 30.2715ZM39.0616 27.5436L32.6916 23.8676C32.3516 23.6716 32.2756 23.1695 32.5196 22.7455L34.0016 20.1796C34.2476 19.7556 34.7216 19.5695 35.0596 19.7655L41.4276 23.4435C41.7676 23.6395 41.8436 24.1416 41.5996 24.5656L40.1176 27.1316C39.8736 27.5556 39.3996 27.7396 39.0596 27.5436" fill="white"/>
</svg>
