<svg width="64" height="64" viewBox="0 0 64 64" fill="none" xmlns="http://www.w3.org/2000/svg">
<rect width="64" height="64" rx="12" fill="#FF5248" fill-opacity="0.16"/>
<path fill-rule="evenodd" clip-rule="evenodd" d="M16.1476 12H33.7342C35.1762 12 35.7002 12.15 36.2282 12.432C36.7543 12.714 37.1683 13.128 37.4503 13.656C37.7323 14.1821 37.8823 14.7061 37.8823 16.1481V33.7347C37.8823 35.1787 37.7323 35.7007 37.4503 36.2287C37.1746 36.7493 36.7488 37.175 36.2282 37.4508C35.7002 37.7328 35.1762 37.8828 33.7342 37.8828H16.1476C14.7056 37.8828 14.1816 37.7328 13.6556 37.4508C13.1342 37.1754 12.7078 36.7496 12.4315 36.2287C12.1515 35.7007 11.9995 35.1787 11.9995 33.7347V16.1481C11.9995 14.7061 12.1495 14.1821 12.4315 13.656C12.7135 13.128 13.1275 12.714 13.6556 12.432C14.1816 12.152 14.7056 12 16.1476 12Z" fill="#FF5248"/>
<path fill-rule="evenodd" clip-rule="evenodd" d="M47.8518 52.0078H30.2653C28.8233 52.0078 28.2993 51.8578 27.7712 51.5758C27.2504 51.2995 26.8246 50.8731 26.5492 50.3517C26.2672 49.8257 26.1172 49.3017 26.1172 47.8597V30.2731C26.1172 28.8291 26.2672 28.3071 26.5492 27.7791C26.8249 27.2585 27.2507 26.8327 27.7712 26.557C28.2993 26.275 28.8233 26.125 30.2653 26.125H47.8518C49.2939 26.125 49.8179 26.275 50.3439 26.557C50.8719 26.837 51.286 27.253 51.568 27.7791C51.848 28.3071 52 28.8291 52 30.2731V47.8597C52 49.3017 51.85 49.8257 51.568 50.3517C51.286 50.8798 50.8719 51.2938 50.3439 51.5758C49.8179 51.8558 49.2939 52.0078 47.8518 52.0078Z" fill="#FF5248"/>
<path d="M32.002 33.6602C32.9221 33.6602 33.668 32.9143 33.668 31.9942C33.668 31.074 32.9221 30.3281 32.002 30.3281C31.0819 30.3281 30.3359 31.074 30.3359 31.9942C30.3359 32.9143 31.0819 33.6602 32.002 33.6602Z" fill="white"/>
<path d="M43.1066 41.6926L43.1266 37.6865C43.1282 37.3918 43.2458 37.1097 43.454 36.9012C43.6621 36.6926 43.944 36.5745 44.2387 36.5724C44.3837 36.5714 44.5275 36.5992 44.6617 36.6542C44.7958 36.7092 44.9178 36.7903 45.0203 36.8928C45.1228 36.9954 45.204 37.1173 45.259 37.2515C45.314 37.3857 45.3418 37.5295 45.3407 37.6745L45.3067 44.3187C45.3046 44.613 45.1868 44.8946 44.9787 45.1027C44.7706 45.3108 44.489 45.4286 44.1947 45.4307L37.5525 45.4647C37.4076 45.4655 37.2641 45.4375 37.1301 45.3824C36.9961 45.3273 36.8745 45.2461 36.7721 45.1436C36.6698 45.0411 36.5888 44.9192 36.534 44.7852C36.4791 44.6511 36.4514 44.5075 36.4524 44.3627C36.4545 44.0687 36.5721 43.7874 36.7797 43.5794C36.9874 43.3713 37.2685 43.2533 37.5625 43.2506L41.8106 43.2286L35.6264 37.0445C35.4416 36.8564 35.3385 36.6029 35.3396 36.3392C35.3407 36.0755 35.446 35.8229 35.6324 35.6364C35.8185 35.4488 36.0712 35.3425 36.3354 35.3406C36.5996 35.3387 36.8538 35.4415 37.0425 35.6264L43.1066 41.6926ZM20.904 22.444L20.884 26.4501C20.8819 26.7444 20.764 27.026 20.5559 27.2341C20.3478 27.4422 20.0662 27.5601 19.7719 27.5622C19.6272 27.563 19.4838 27.535 19.35 27.48C19.2162 27.425 19.0946 27.344 18.9923 27.2417C18.89 27.1394 18.809 27.0179 18.754 26.884C18.699 26.7502 18.6711 26.6068 18.6719 26.4621L18.7039 19.8179C18.706 19.5236 18.8238 19.242 19.0319 19.0339C19.24 18.8258 19.5216 18.708 19.8159 18.7059L26.4601 18.6719C26.605 18.6711 26.7485 18.6991 26.8825 18.7542C27.0165 18.8093 27.1381 18.8905 27.2405 18.993C27.3428 19.0955 27.4237 19.2174 27.4786 19.3514C27.5335 19.4855 27.5612 19.6291 27.5602 19.7739C27.5581 20.0682 27.4402 20.3498 27.2321 20.5579C27.024 20.766 26.7424 20.8839 26.4481 20.886L22.202 20.908L28.3862 27.0921C28.5714 27.2806 28.6745 27.5346 28.673 27.7988C28.6715 28.063 28.5655 28.3159 28.3782 28.5022C28.192 28.6889 27.9395 28.7945 27.6758 28.796C27.4121 28.7975 27.1585 28.6948 26.9701 28.5102L20.904 22.444Z" fill="white"/>
</svg>
