<svg width="64" height="64" viewBox="0 0 64 64" fill="none" xmlns="http://www.w3.org/2000/svg">
<rect width="64" height="64" rx="12" fill="#B100ED" fill-opacity="0.16"/>
<path fill-rule="evenodd" clip-rule="evenodd" d="M18.41 12H45.59C47.818 12 48.628 12.232 49.442 12.668C50.256 13.104 50.896 13.744 51.332 14.558C51.768 15.372 52 16.18 52 18.41V45.59C52 47.82 51.768 48.628 51.332 49.442C50.9049 50.2467 50.2466 50.9049 49.442 51.332C48.628 51.768 47.82 52 45.59 52H18.41C16.18 52 15.372 51.768 14.558 51.332C13.7534 50.9049 13.0951 50.2467 12.668 49.442C12.232 48.628 12 47.82 12 45.59V18.41C12 16.18 12.232 15.372 12.668 14.558C13.104 13.744 13.744 13.104 14.558 12.668C15.372 12.232 16.18 12 18.41 12Z" fill="#B100ED"/>
<path d="M32.0831 20.0005C32.2525 20.0018 32.4225 20.0098 32.5931 20.0244C35.4491 20.2544 37.8251 22.6065 38.0031 25.3785C38.0191 25.6225 38.0151 25.8225 38.0051 26.2185L37.9851 27.2345C37.9702 27.5071 37.8505 27.7634 37.651 27.9497C37.4515 28.1361 37.1877 28.2382 36.9147 28.2346C36.6417 28.231 36.3807 28.1219 36.1862 27.9303C35.9917 27.7387 35.8788 27.4794 35.8711 27.2065L35.8951 26.1704C35.9031 25.8364 35.9071 25.6885 35.8951 25.5165C35.7831 23.7645 34.2571 22.2765 32.4231 22.1285C32.3028 22.1177 32.182 22.1123 32.0611 22.1125C31.0881 22.0838 30.1392 22.4181 29.3991 23.0504C28.6761 23.6574 28.2171 24.5216 28.1191 25.4605C28.1091 25.6305 28.0991 26.8344 28.1051 29.6624H40.2451C40.393 29.663 40.5346 29.7219 40.6391 29.8264C40.7436 29.931 40.8026 30.0726 40.8031 30.2204V42.0305C40.8026 42.178 40.7439 42.3193 40.6398 42.4237C40.5357 42.5282 40.3946 42.5874 40.2471 42.5885H23.7591C23.6116 42.5874 23.4705 42.5282 23.3664 42.4237C23.2623 42.3193 23.2036 42.178 23.2031 42.0305V30.2204C23.2036 30.0729 23.2623 29.9317 23.3664 29.8272C23.4705 29.7227 23.6116 29.6635 23.7591 29.6624H25.9931C25.9851 25.6684 26.0051 25.3825 26.0131 25.2925C26.1291 23.8525 26.8851 22.4104 28.0351 21.4384C29.141 20.4935 30.5526 19.9825 32.0071 20.0005H32.0831ZM32.0031 33.0285C31.1131 33.0285 30.3911 33.7225 30.3911 34.5805C30.3911 35.0965 30.6511 35.5545 31.0551 35.8365L30.6351 39.2224H33.3691L32.9531 35.8365C33.1561 35.6956 33.3223 35.5079 33.4375 35.2893C33.5527 35.0707 33.6136 34.8276 33.6151 34.5805C33.6151 33.7225 32.8951 33.0285 32.0031 33.0285Z" fill="white"/>
</svg>
