<svg width="64" height="64" viewBox="0 0 64 64" fill="none" xmlns="http://www.w3.org/2000/svg">
<rect width="64" height="64" rx="12" fill="#FAD500" fill-opacity="0.16"/>
<path fill-rule="evenodd" clip-rule="evenodd" d="M18.41 12H45.59C47.818 12 48.628 12.232 49.442 12.668C50.256 13.104 50.896 13.744 51.332 14.558C51.768 15.372 52 16.18 52 18.41V45.59C52 47.82 51.768 48.628 51.332 49.442C50.9049 50.2467 50.2466 50.9049 49.442 51.332C48.628 51.768 47.82 52 45.59 52H18.41C16.18 52 15.372 51.768 14.558 51.332C13.7534 50.9049 13.0951 50.2467 12.668 49.442C12.232 48.628 12 47.82 12 45.59V18.41C12 16.18 12.232 15.372 12.668 14.558C13.104 13.744 13.744 13.104 14.558 12.668C15.372 12.232 16.18 12 18.41 12Z" fill="#FAD500"/>
<path d="M30.1614 30.025C30.1614 30.713 29.2874 32.441 28.4754 33.757C28.4372 33.8188 28.4118 33.8876 28.4008 33.9595C28.3898 34.0313 28.3934 34.1046 28.4114 34.175C28.4734 34.397 28.6714 34.551 28.8994 34.551H35.0954C35.1902 34.5516 35.2832 34.5252 35.3636 34.4749C35.444 34.4246 35.5084 34.3525 35.5494 34.267C35.5917 34.1817 35.6098 34.0864 35.6017 33.9916C35.5936 33.8967 35.5596 33.8059 35.5034 33.729C34.3474 32.153 33.8334 31.009 33.8334 30.025C33.8334 29.039 34.3474 27.897 35.5074 26.311C36.0374 25.563 36.3174 24.679 36.3174 23.757C36.3174 21.341 34.3794 19.375 31.9974 19.375C29.6154 19.375 27.6774 21.341 27.6774 23.757C27.6774 24.679 27.9574 25.563 28.4934 26.319C29.6474 27.897 30.1614 29.039 30.1614 30.025ZM41.3754 35.269H22.6174C22.5502 35.2692 22.4838 35.2828 22.4219 35.3088C22.36 35.3348 22.3038 35.3727 22.2566 35.4205C22.2094 35.4682 22.1721 35.5249 22.1469 35.5871C22.1216 35.6493 22.1089 35.7159 22.1094 35.783V40.957C22.1094 41.241 22.3374 41.471 22.6174 41.471H41.3734C41.6534 41.471 41.8794 41.241 41.8794 40.957V35.783C41.8799 35.716 41.8673 35.6496 41.8421 35.5875C41.817 35.5254 41.7798 35.4689 41.7328 35.4212C41.6859 35.3735 41.6299 35.3354 41.5683 35.3093C41.5066 35.2832 41.4424 35.2695 41.3754 35.269ZM38.5054 42.223H25.4894C25.4222 42.2235 25.3557 42.2373 25.2938 42.2635C25.2318 42.2897 25.1757 42.3279 25.1285 42.3758C25.0813 42.4237 25.0441 42.4805 25.0188 42.5428C24.9936 42.6051 24.9809 42.6718 24.9814 42.739V43.321C24.9814 43.605 25.2094 43.837 25.4894 43.837H38.5054C38.7854 43.837 39.0134 43.605 39.0134 43.321V42.739C39.0139 42.6718 39.0012 42.6051 38.976 42.5428C38.9507 42.4805 38.9134 42.4237 38.8663 42.3758C38.8191 42.3279 38.7629 42.2897 38.701 42.2635C38.6391 42.2373 38.5726 42.2235 38.5054 42.223Z" fill="white"/>
</svg>
